<svg width="60" height="60" viewBox="0 0 60 60" fill="none" xmlns="http://www.w3.org/2000/svg">
<path d="M38.8989 29H42.8203C44.5732 29 46 27.5732 46 25.8198V19.2402C46 18.1128 45.4238 17.0903 44.4551 16.502L35.9502 11.4038L35.1963 3.08057C35.041 1.35303 33.5586 0 31.8203 0H7.38965C5.52051 0 4 1.521 4 3.39014V7H2.62012C1.17578 7 0 8.17529 0 9.62012V17.3799C0 18.8247 1.17578 20 2.62012 20H4V26.3799C4 27.8247 5.17578 29 6.62012 29H9.10107C9.56573 31.2793 11.5856 33 14 33C16.4144 33 18.4343 31.2793 18.8989 29H29.1011C29.5657 31.2793 31.5856 33 34 33C36.4144 33 38.4343 31.2793 38.8989 29ZM33.2041 3.26025L33.9052 11H25V2H31.8203C32.5332 2 33.1406 2.55322 33.2041 3.26025ZM15 11V2H23V11H15ZM6 3.39014C6 2.62354 6.62305 2 7.38965 2H13V11H6V8V3.39014ZM2.62012 18C2.28418 18 2 17.7158 2 17.3799V9.62012C2 9.28418 2.28418 9 2.62012 9H4V18H2.62012ZM6 26.3799V19V17H21C21.5527 17 22 16.5522 22 16C22 15.4478 21.5527 15 21 15H6V13H34.7224L43.4219 18.2148C43.7842 18.4346 44 18.8179 44 19.2402V25.8198C44 26.4707 43.4707 27 42.8203 27H38.8994L38.8986 26.9974C38.8949 26.9791 38.8869 26.9626 38.883 26.9445C38.8208 26.6569 38.7335 26.3794 38.6241 26.1124C38.5847 26.0162 38.5318 25.9285 38.4866 25.8353C38.3984 25.6532 38.3073 25.4739 38.1984 25.3048C38.1343 25.2054 38.0615 25.1141 37.9907 25.0197C37.8792 24.8707 37.764 24.7266 37.637 24.5911C37.5533 24.5019 37.4659 24.4187 37.3759 24.3358C37.2415 24.2118 37.1015 24.0965 36.9541 23.9877C36.8558 23.9151 36.7578 23.8448 36.6542 23.7794C36.4954 23.6791 36.3294 23.5927 36.1592 23.5104C36.0532 23.4592 35.9503 23.4051 35.8404 23.3613C35.6482 23.2847 35.4478 23.2285 35.2447 23.1759C35.1458 23.1503 35.0513 23.1157 34.9501 23.0961C34.6418 23.0364 34.3255 23 34 23C33.6745 23 33.3582 23.0364 33.0499 23.0961C32.9487 23.1157 32.8542 23.1503 32.7553 23.1759C32.5522 23.2285 32.3518 23.2847 32.1596 23.3613C32.0497 23.4051 31.9468 23.4592 31.8408 23.5104C31.6706 23.5927 31.5046 23.6791 31.3458 23.7794C31.2422 23.8448 31.1442 23.9151 31.0459 23.9877C30.8985 24.0965 30.7585 24.2118 30.6241 24.3358C30.5341 24.4187 30.4467 24.5019 30.363 24.5911C30.236 24.7266 30.1208 24.8707 30.0093 25.0197C29.9385 25.1141 29.8657 25.2054 29.8016 25.3048C29.6927 25.4739 29.6016 25.6532 29.5134 25.8353C29.4682 25.9285 29.4153 26.0162 29.3759 26.1124C29.2665 26.3794 29.1792 26.6569 29.117 26.9445C29.1131 26.9626 29.1051 26.9791 29.1014 26.9974L29.1006 27H18.8994L18.8986 26.9974C18.8949 26.9791 18.8869 26.9626 18.883 26.9445C18.8208 26.6569 18.7335 26.3794 18.6241 26.1124C18.5847 26.0162 18.5318 25.9285 18.4866 25.8353C18.3984 25.6532 18.3073 25.4739 18.1984 25.3048C18.1343 25.2054 18.0615 25.1141 17.9907 25.0197C17.8792 24.8707 17.764 24.7266 17.637 24.5911C17.5533 24.5019 17.4659 24.4187 17.3759 24.3358C17.2415 24.2118 17.1015 24.0965 16.9541 23.9877C16.8558 23.9151 16.7578 23.8448 16.6542 23.7794C16.4954 23.6791 16.3294 23.5927 16.1592 23.5104C16.0532 23.4592 15.9503 23.4051 15.8404 23.3613C15.6482 23.2847 15.4478 23.2285 15.2447 23.1759C15.1458 23.1503 15.0513 23.1157 14.9501 23.0961C14.6418 23.0364 14.3255 23 14 23C13.6745 23 13.3582 23.0364 13.0499 23.0961C12.9487 23.1157 12.8542 23.1503 12.7553 23.1759C12.5522 23.2285 12.3518 23.2847 12.1596 23.3613C12.0497 23.4051 11.9468 23.4592 11.8408 23.5104C11.6706 23.5927 11.5046 23.6791 11.3458 23.7794C11.2422 23.8448 11.1442 23.9151 11.0459 23.9877C10.8985 24.0965 10.7585 24.2118 10.6241 24.3358C10.5341 24.4187 10.4467 24.5019 10.363 24.5911C10.236 24.7266 10.1208 24.8707 10.0093 25.0197C9.93854 25.1141 9.86572 25.2054 9.80164 25.3048C9.69275 25.4739 9.60162 25.6532 9.51337 25.8353C9.4682 25.9285 9.41534 26.0162 9.37592 26.1124C9.26654 26.3794 9.1792 26.6569 9.117 26.9445C9.1131 26.9626 9.1051 26.9791 9.10138 26.9974L9.10059 27H6.62012C6.28418 27 6 26.7158 6 26.3799ZM14 31C12.3457 31 11 29.6543 11 28C11 26.3457 12.3457 25 14 25C15.6543 25 17 26.3457 17 28C17 29.6543 15.6543 31 14 31ZM31 28C31 26.3457 32.3457 25 34 25C35.6543 25 37 26.3457 37 28C37 29.6543 35.6543 31 34 31C32.3457 31 31 29.6543 31 28Z" fill="#6580A8"/>
<path d="M46 48.0193V42.8989C48.2793 42.4343 50 40.4144 50 38C50 35.2432 47.7568 33 45 33C42.2432 33 40 35.2432 40 38C40 40.4144 41.7207 42.4343 44 42.8989V48.0193C37.5232 48.2145 31 50.2939 31 54C31 57.897 38.2129 60 45 60C51.7871 60 59 57.897 59 54C59 50.2939 52.4768 48.2145 46 48.0193ZM42 38C42 36.3457 43.3457 35 45 35C46.6543 35 48 36.3457 48 38C48 39.6543 46.6543 41 45 41C43.3457 41 42 39.6543 42 38ZM45 58C37.5654 58 33 55.6704 33 54C33 52.4064 37.1621 50.2178 44 50.0195V53C44 53.5522 44.4473 54 45 54C45.5527 54 46 53.5522 46 53V50.0195C52.8379 50.2178 57 52.4064 57 54C57 55.6704 52.4346 58 45 58Z" fill="#6580A8"/>
<path d="M59 22H57C56.4473 22 56 22.4478 56 23C56 23.5522 56.4473 24 57 24H58V25C58 25.5522 58.4473 26 59 26C59.5527 26 60 25.5522 60 25V23C60 22.4478 59.5527 22 59 22Z" fill="#6580A8"/>
<path d="M49 24H53C53.5527 24 54 23.5522 54 23C54 22.4478 53.5527 22 53 22H49C48.4473 22 48 22.4478 48 23C48 23.5522 48.4473 24 49 24Z" fill="#6580A8"/>
<path d="M59 36C58.4473 36 58 36.4478 58 37V41C58 41.5522 58.4473 42 59 42C59.5527 42 60 41.5522 60 41V37C60 36.4478 59.5527 36 59 36Z" fill="#6580A8"/>
<path d="M59 28C58.4473 28 58 28.4478 58 29V33C58 33.5522 58.4473 34 59 34C59.5527 34 60 33.5522 60 33V29C60 28.4478 59.5527 28 59 28Z" fill="#6580A8"/>
<path d="M59 44C58.4473 44 58 44.4478 58 45V46C58 46.5522 58.4473 47 59 47C59.5527 47 60 46.5522 60 46V45C60 44.4478 59.5527 44 59 44Z" fill="#6580A8"/>
<path d="M7 44C6.44727 44 6 44.4478 6 45V49C6 49.5522 6.44727 50 7 50C7.55273 50 8 49.5522 8 49V45C8 44.4478 7.55273 44 7 44Z" fill="#6580A8"/>
<path d="M7 36C6.44727 36 6 36.4478 6 37V41C6 41.5522 6.44727 42 7 42C7.55273 42 8 41.5522 8 41V37C8 36.4478 7.55273 36 7 36Z" fill="#6580A8"/>
<path d="M15 48H11C10.4473 48 10 48.4478 10 49C10 49.5522 10.4473 50 11 50H15C15.5527 50 16 49.5522 16 49C16 48.4478 15.5527 48 15 48Z" fill="#6580A8"/>
<path d="M29 48H27C26.4473 48 26 48.4478 26 49C26 49.5522 26.4473 50 27 50H29C29.5527 50 30 49.5522 30 49C30 48.4478 29.5527 48 29 48Z" fill="#6580A8"/>
<path d="M23 48H19C18.4473 48 18 48.4478 18 49C18 49.5522 18.4473 50 19 50H23C23.5527 50 24 49.5522 24 49C24 48.4478 23.5527 48 23 48Z" fill="#6580A8"/>
</svg>
