<svg width="86" height="84" viewBox="0 0 86 84" fill="none" xmlns="http://www.w3.org/2000/svg">
<path d="M31.0307 22.4381C30.64 23.6256 30.9682 24.8912 31.8588 25.7662L35.0776 28.9693L34.3276 33.3443C34.1245 34.5631 34.6088 35.7818 35.6245 36.5162C36.6245 37.2506 37.937 37.3443 39.0464 36.7662L43.0776 34.7037L46.9995 36.7662C47.4839 37.0162 47.9995 37.1412 48.5151 37.1412C49.187 37.1412 49.8432 36.9381 50.4213 36.5162C51.4213 35.7818 51.9213 34.5631 51.7182 33.3443L50.9994 28.8755L54.1713 25.7817C55.062 24.9067 55.3744 23.6411 54.9995 22.4536C54.6088 21.2661 53.6089 20.4224 52.3745 20.2505L47.8901 19.5474L45.9213 15.563C45.3744 14.4536 44.2494 13.7505 43.0151 13.7505C41.7808 13.7505 40.6557 14.438 40.1089 15.563L38.062 19.6099L33.6714 20.2505C32.437 20.4224 31.437 21.2817 31.0464 22.4536L31.0307 22.4381ZM34.0932 23.3287L38.4838 22.6881C39.5463 22.5319 40.4526 21.8756 40.9213 20.9069L42.9838 16.86C42.9838 16.86 43.0775 16.8913 43.0931 16.9225L45.0619 20.9069C45.5307 21.86 46.4525 22.5319 47.4994 22.6881L51.89 23.3287L51.9525 23.5318L48.7806 26.6257C48.015 27.3757 47.6712 28.4382 47.8431 29.5007L48.5931 33.8757L48.4213 34.0007L44.4994 31.9382C43.5462 31.4382 42.4213 31.4382 41.4838 31.9382L37.5619 34.0007L37.39 33.8757L38.14 29.5007C38.3275 28.4538 37.9681 27.3757 37.2025 26.6257L34.0306 23.5318L34.0932 23.3287Z" fill="#6580A8"/>
<path d="M8.81195 40L8.26507 43.1562C8.04632 44.375 8.54632 45.5937 9.54627 46.3281C10.1088 46.7343 10.7807 46.9531 11.4525 46.9531C11.9681 46.9531 12.4837 46.8281 12.9681 46.5781L15.9212 45.0781L18.765 46.5781C19.8744 47.1562 21.1712 47.0625 22.1869 46.3281C23.1869 45.5937 23.6869 44.375 23.4838 43.1562L22.9682 39.8906L25.2651 37.6562C26.1557 36.7812 26.4682 35.5156 26.0776 34.3281C25.687 33.1406 24.687 32.2969 23.4682 32.125L20.2026 31.5938L18.7807 28.7188C18.2338 27.6093 17.1088 26.9062 15.8745 26.9062C14.6402 26.9062 13.5151 27.5938 12.9683 28.7188L11.4683 31.6562L8.29635 32.125C7.06195 32.2969 6.06195 33.1562 5.68695 34.3281C5.31195 35.5 5.62445 36.7812 6.51507 37.6562L8.84317 40H8.81195ZM8.73383 35.2188L11.9057 34.75C12.9682 34.5938 13.8745 33.9376 14.3432 32.9845L15.8744 30.047C15.8744 30.047 15.9682 30.0782 15.9838 30.1095L17.4057 32.9845C17.8745 33.9376 18.7963 34.6095 19.8432 34.7657L23.0151 35.2344L23.0776 35.4375L20.7807 37.6719C20.0151 38.4219 19.6713 39.4844 19.8432 40.5469L20.3901 43.7031L20.2182 43.8281L17.3744 42.3281C16.9057 42.0781 16.39 41.9531 15.8588 41.9531C15.3276 41.9531 14.8276 42.0781 14.3588 42.3281L11.515 43.8281L11.3431 43.7031L11.89 40.5469C12.0775 39.5 11.7181 38.4219 10.9525 37.6719L8.65561 35.4375L8.71811 35.2344L8.73383 35.2188Z" fill="#6580A8"/>
<path d="M63.0779 40L62.531 43.1562C62.3279 44.375 62.8123 45.5937 63.8279 46.3281C64.8279 47.0625 66.1404 47.1562 67.2341 46.5781L70.1872 45.0781L73.031 46.5781C73.5154 46.8281 74.031 46.9531 74.5466 46.9531C75.2185 46.9531 75.8747 46.75 76.4528 46.3281C77.4528 45.5937 77.9528 44.375 77.734 43.1562L77.2184 39.8906L79.5153 37.6562C80.4059 36.7812 80.7184 35.5156 80.3434 34.3281C79.9685 33.1406 78.9528 32.2969 77.7184 32.125L74.4528 31.5938L73.0309 28.7188C72.4841 27.6093 71.359 26.9062 70.1247 26.9062C68.8904 26.9062 67.7653 27.5938 67.2185 28.7188L65.7029 31.6562L62.531 32.125C61.2966 32.2969 60.2966 33.1562 59.9216 34.3281C59.531 35.5156 59.8591 36.7812 60.7341 37.6562L63.0622 40H63.0779ZM62.9842 35.2188L66.1561 34.75C67.2186 34.5938 68.1249 33.9376 68.5936 32.9845L70.0155 30.1095H70.2186L71.6405 32.9845C72.1092 33.9376 73.0311 34.6095 74.078 34.7657L77.2499 35.2344L77.3124 35.4375L75.0155 37.6719C74.2499 38.4219 73.9061 39.4844 74.078 40.5469L74.6249 43.7031L74.453 43.8281L71.6092 42.3281C71.1404 42.0781 70.6248 41.9531 70.0936 41.9531C69.5624 41.9531 69.0624 42.0781 68.5936 42.3281L65.7498 43.8281L65.5779 43.7031L66.1248 40.5312C66.3123 39.4843 65.9529 38.4062 65.1873 37.6562L62.8904 35.4218L62.9529 35.2187L62.9842 35.2188Z" fill="#6580A8"/>
<path d="M83.5618 54.2032C81.9056 52.4376 79.3587 51.8751 77.093 52.7501C74.4836 53.7501 71.5149 55.4845 68.2961 57.9063C66.9055 58.9532 65.1399 59.7188 63.2023 60.2813C63.5616 58.4219 63.1554 55.9532 61.3742 54.5938C60.6867 54.0781 59.8742 53.7813 58.9211 53.7031C54.093 53.2813 47.1241 51.3125 39.2801 48.1719C28.9991 44.0625 17.2021 53.7344 16.7021 54.1563C16.6083 54.2345 16.5458 54.3438 16.4833 54.4376L15.6239 52.9532C15.1864 52.2032 14.2333 51.9532 13.4833 52.3751L1.59232 59.2501C1.23294 59.4532 0.967325 59.797 0.857945 60.2032C0.748565 60.6094 0.811069 61.0313 1.01419 61.3907L13.4522 82.9217C13.7491 83.4217 14.2647 83.7029 14.8116 83.7029C15.0772 83.7029 15.3428 83.6404 15.5928 83.4998L27.4838 76.6248C27.8432 76.4217 28.1088 76.0779 28.2182 75.6717C28.3276 75.2655 28.2651 74.8436 28.062 74.4842L27.0932 72.7967C30.9213 71.2655 35.562 72.0311 41.2652 72.9842C45.2964 73.6561 49.7027 74.4061 54.5312 74.4061C56.2656 74.4061 58.0468 74.3124 59.8906 74.078C70.1246 72.8124 78.2496 67.1718 83.2816 62.64C84.5004 61.515 85.2035 59.9369 85.2035 58.2806C85.2035 56.765 84.6254 55.3118 83.5785 54.2181L83.5618 54.2032ZM15.3738 79.9842L4.49875 61.1562L13.6863 55.8437L23.4988 72.8437C23.4988 72.8437 23.4988 72.8749 23.5144 72.8905L23.5456 72.9218L24.5456 74.6562L15.3581 79.9687L15.3738 79.9842ZM81.1708 60.3122C77.3427 63.7653 69.4368 69.7184 59.4988 70.9532C52.9988 71.7657 47.0298 70.7657 41.7798 69.8751C35.6236 68.8439 30.2488 67.9532 25.5138 70.0313L17.9044 56.8433C18.2012 56.8121 18.4825 56.7183 18.7169 56.5152C18.8262 56.4214 29.5759 47.6246 38.1229 51.0464C46.2323 54.2964 53.5289 56.3276 58.6539 56.7808C58.7945 56.7808 59.1851 56.8277 59.4976 57.062C60.0914 57.5152 60.3726 58.7026 60.1382 59.7495C60.1382 59.7808 60.1382 59.7964 60.1226 59.8277C59.9664 60.4058 59.5132 60.9058 58.9195 61.1871C51.982 62.2027 44.7165 61.4215 44.6075 61.4215C43.7638 61.3433 42.9825 61.9371 42.8887 62.7965C42.7949 63.6558 43.4043 64.4214 44.2637 64.5152C44.6543 64.5621 49.7012 65.0934 55.5607 64.6715C60.6857 64.2965 66.4047 63.2027 70.1547 60.3903C73.8735 57.5934 76.5766 56.2653 78.2016 55.6559C79.2797 55.234 80.4828 55.4996 81.2797 56.3434C81.7797 56.859 82.0453 57.5465 82.0453 58.2653C82.0453 59.0466 81.7172 59.7809 81.1547 60.3122L81.1708 60.3122Z" fill="#6580A8"/>
<path d="M43 8.14111C43.8594 8.14111 44.5625 7.43799 44.5625 6.57861V1.89111C44.5625 1.03173 43.8594 0.328613 43 0.328613C42.1406 0.328613 41.4375 1.03173 41.4375 1.89111V6.57861C41.4375 7.43799 42.1406 8.14111 43 8.14111Z" fill="#6580A8"/>
<path d="M31.953 11.7973C32.2655 12.1098 32.6561 12.2505 33.0624 12.2505C33.4687 12.2505 33.8593 12.0942 34.1718 11.7973C34.7812 11.188 34.7812 10.2035 34.1718 9.59424L30.8593 6.28174C30.2499 5.67236 29.2655 5.67236 28.6562 6.28174C28.0469 6.89112 28.0468 7.87554 28.6562 8.48484L31.9687 11.7973H31.953Z" fill="#6580A8"/>
<path d="M52.9375 12.2499C53.3437 12.2499 53.7343 12.0937 54.0469 11.7968L57.3594 8.48432C57.9687 7.87494 57.9687 6.89052 57.3594 6.28122C56.75 5.67192 55.7656 5.67184 55.1563 6.28122L51.8438 9.59372C51.2344 10.2031 51.2344 11.1875 51.8438 11.7968C52.1563 12.1093 52.5469 12.2499 52.9532 12.2499H52.9375Z" fill="#6580A8"/>
</svg>
