<svg width="21" height="22" viewBox="0 0 21 22" fill="none" xmlns="http://www.w3.org/2000/svg">
<path d="M10.1653 7.0729C10.4408 7.0729 10.6638 7.29588 10.6638 7.57145C10.6638 7.84614 10.4408 8.06999 10.1653 8.06999H4.13107C3.52485 8.06999 2.97291 8.3184 2.57356 8.7186C2.17336 9.1188 1.9258 9.66989 1.9258 10.2761C1.9258 10.8823 2.17421 11.4343 2.57356 11.8336C2.97376 12.2338 3.52485 12.4822 4.13107 12.4822H17.1194C18.0011 12.4822 18.8015 12.8426 19.3814 13.4225C19.9614 14.0024 20.3217 14.8036 20.3217 15.6846C20.3217 16.5655 19.9614 17.3667 19.3814 17.9467C18.8015 18.5266 18.0003 18.8869 17.1194 18.8869H11.17C11.0657 19.4838 10.7783 20.0188 10.3671 20.4292C9.84483 20.9515 9.12244 21.2745 8.32548 21.2745C7.52849 21.2745 6.80697 20.9515 6.28386 20.4292C5.76159 19.9069 5.43856 19.1845 5.43856 18.3876C5.43856 17.5906 5.76159 16.8691 6.28386 16.346C6.80613 15.8237 7.52851 15.5007 8.32548 15.5007C9.12246 15.5007 9.84398 15.8237 10.3671 16.346C10.7783 16.7572 11.0657 17.2913 11.17 17.8882H17.1194C17.7256 17.8882 18.2775 17.6398 18.6769 17.2396C19.0771 16.8394 19.3255 16.2883 19.3255 15.6821C19.3255 15.0759 19.0771 14.5239 18.6769 14.1246C18.2767 13.7244 17.7256 13.476 17.1194 13.476H4.13107C3.25015 13.476 2.44893 13.1156 1.86897 12.5357C1.28901 11.9558 0.928711 11.1546 0.928711 10.2736C0.928711 9.39269 1.28906 8.59147 1.86897 8.01151C2.44889 7.43156 3.25013 7.07125 4.13107 7.07125H10.1653V7.0729ZM9.66166 17.0522C9.31998 16.7105 8.84687 16.4986 8.32545 16.4986C7.80319 16.4986 7.33093 16.7105 6.98925 17.0522C6.64757 17.3939 6.4356 17.867 6.4356 18.3884C6.4356 18.9107 6.64756 19.3829 6.98925 19.7246C7.33093 20.0663 7.80404 20.2783 8.32545 20.2783C8.84772 20.2783 9.31998 20.0663 9.66166 19.7246C10.0033 19.3829 10.2153 18.9098 10.2153 18.3884C10.2153 17.8662 10.0033 17.3939 9.66166 17.0522ZM16.6038 0.00878906C17.7984 0.00878906 18.8785 0.492919 19.662 1.27547C20.4446 2.05805 20.9287 3.13989 20.9287 4.33371C20.9287 5.71232 20.437 6.86126 19.668 7.83277C18.9235 8.77473 17.9205 9.54035 16.8606 10.1839C16.6936 10.2848 16.4927 10.2763 16.3384 10.1796C15.2811 9.53611 14.2823 8.77218 13.5388 7.83288C12.7698 6.86038 12.2781 5.71156 12.2781 4.33381C12.2781 3.13919 12.7622 2.05912 13.5448 1.27557C14.3273 0.493 15.4083 0.00889088 16.603 0.00889088L16.6038 0.00878906ZM18.9575 1.98089C18.3555 1.37892 17.5238 1.00585 16.6038 1.00585C15.6847 1.00585 14.853 1.37805 14.2501 1.98089C13.6481 2.58285 13.2751 3.41461 13.2751 4.33458C13.2751 5.46732 13.6812 6.41435 14.3179 7.21896C14.9199 7.98033 15.7296 8.62301 16.6037 9.17749C17.477 8.62299 18.2867 7.98033 18.8894 7.21896C19.5253 6.4152 19.9323 5.4673 19.9323 4.33458C19.9323 3.4155 19.5603 2.58376 18.9575 1.98089ZM16.6038 1.90373C17.2744 1.90373 17.8823 2.17589 18.3224 2.61507C18.7616 3.05425 19.0337 3.66216 19.0337 4.33367C19.0337 5.00518 18.7616 5.61223 18.3224 6.05227C17.8832 6.49145 17.2753 6.76361 16.6038 6.76361C15.9331 6.76361 15.3252 6.49145 14.8852 6.05227C14.446 5.61225 14.1738 5.00433 14.1738 4.33367C14.1738 3.66301 14.446 3.05512 14.8852 2.61507C15.3252 2.17589 15.9331 1.90373 16.6038 1.90373ZM17.617 3.32048C17.3575 3.06104 16.9997 2.90079 16.6038 2.90079C16.2078 2.90079 15.85 3.06104 15.5898 3.32048C15.3303 3.57992 15.1701 3.93773 15.1701 4.33367C15.1701 4.72961 15.3303 5.08742 15.5898 5.34771C15.8492 5.60715 16.2078 5.7674 16.6038 5.7674C16.9997 5.7674 17.3575 5.60715 17.617 5.34771C17.8764 5.08827 18.0367 4.72961 18.0367 4.33367C18.0367 3.93773 17.8764 3.57992 17.617 3.32048Z" fill="#6580A8"/>
</svg>
