<svg width="20" height="22" viewBox="0 0 20 22" fill="none" xmlns="http://www.w3.org/2000/svg">
<path d="M9.23657 7.06411C9.51212 7.06411 9.73511 7.28709 9.73511 7.56266C9.73511 7.83736 9.51214 8.0612 9.23657 8.0612H3.20236C2.59614 8.0612 2.0442 8.30961 1.64485 8.70981C1.24465 9.11001 0.997085 9.6611 0.997085 10.2673C0.997085 10.8735 1.2455 11.4255 1.64485 11.8248C2.04505 12.225 2.59614 12.4734 3.20236 12.4734H16.1906C17.0724 12.4734 17.8728 12.8338 18.4527 13.4137C19.0327 13.9936 19.393 14.7949 19.393 15.6758C19.393 16.5567 19.0327 17.3579 18.4527 17.9379C17.8728 18.5178 17.0716 18.8782 16.1906 18.8782H10.2413C10.137 19.475 9.84958 20.01 9.43838 20.4204C8.91612 20.9427 8.19373 21.2657 7.39677 21.2657C6.59978 21.2657 5.87826 20.9427 5.35515 20.4204C4.83288 19.8981 4.50985 19.1758 4.50985 18.3788C4.50985 17.5818 4.83288 16.8603 5.35515 16.3372C5.87741 15.8149 6.5998 15.4919 7.39677 15.4919C8.19375 15.4919 8.91527 15.8149 9.43838 16.3372C9.84958 16.7484 10.137 17.2825 10.2413 17.8794H16.1906C16.7969 17.8794 17.3488 17.631 17.7481 17.2308C18.1483 16.8306 18.3968 16.2795 18.3968 15.6733C18.3968 15.0671 18.1483 14.5151 17.7481 14.1158C17.348 13.7156 16.7969 13.4672 16.1906 13.4672H3.20236C2.32144 13.4672 1.52022 13.1068 0.940261 12.5269C0.360303 11.947 0 11.1458 0 10.2648C0 9.3839 0.360347 8.58268 0.940261 8.00273C1.52018 7.42277 2.32142 7.06247 3.20236 7.06247H9.23657V7.06411ZM8.73295 17.0434C8.39127 16.7017 7.91816 16.4898 7.39674 16.4898C6.87448 16.4898 6.40222 16.7017 6.06054 17.0434C5.71886 17.3851 5.50689 17.8582 5.50689 18.3796C5.50689 18.9019 5.71885 19.3742 6.06054 19.7158C6.40222 20.0575 6.87532 20.2695 7.39674 20.2695C7.91901 20.2695 8.39127 20.0575 8.73295 19.7158C9.07463 19.3742 9.2866 18.9011 9.2866 18.3796C9.2866 17.8574 9.07464 17.3851 8.73295 17.0434ZM15.6751 0C16.8697 0 17.9498 0.48413 18.7333 1.26668C19.5159 2.04926 20 3.1311 20 4.32492C20 5.70354 19.5083 6.85247 18.7392 7.82399C17.9948 8.76594 16.9918 9.53156 15.9319 10.1751C15.7649 10.276 15.564 10.2675 15.4096 10.1708C14.3524 9.52732 13.3536 8.76339 12.6101 7.82409C11.8411 6.85159 11.3494 5.70277 11.3494 4.32502C11.3494 3.1304 11.8335 2.05034 12.6161 1.26678C13.3986 0.48421 14.4796 0.000101816 15.6743 0.000101816L15.6751 0ZM18.0288 1.9721C17.4268 1.37013 16.595 0.997063 15.6751 0.997063C14.756 0.997063 13.9243 1.36926 13.3214 1.9721C12.7194 2.57406 12.3464 3.40582 12.3464 4.32579C12.3464 5.45853 12.7525 6.40556 13.3892 7.21017C13.9912 7.97154 14.8009 8.61422 15.675 9.1687C16.5483 8.6142 17.358 7.97154 17.9607 7.21017C18.5966 6.40641 19.0036 5.45851 19.0036 4.32579C19.0036 3.40671 18.6316 2.57497 18.0288 1.9721ZM15.6751 1.89494C16.3457 1.89494 16.9536 2.1671 17.3937 2.60628C17.8329 3.04546 18.105 3.65337 18.105 4.32488C18.105 4.99639 17.8329 5.60344 17.3937 6.04349C16.9545 6.48266 16.3466 6.75482 15.6751 6.75482C15.0044 6.75482 14.3965 6.48266 13.9565 6.04349C13.5173 5.60346 13.2451 4.99555 13.2451 4.32488C13.2451 3.65422 13.5173 3.04633 13.9565 2.60628C14.3965 2.1671 15.0044 1.89494 15.6751 1.89494ZM16.6883 3.31169C16.4288 3.05225 16.071 2.892 15.6751 2.892C15.2791 2.892 14.9213 3.05225 14.661 3.31169C14.4016 3.57113 14.2414 3.92894 14.2414 4.32488C14.2414 4.72083 14.4016 5.07863 14.661 5.33892C14.9205 5.59836 15.2791 5.75861 15.6751 5.75861C16.071 5.75861 16.4288 5.59836 16.6883 5.33892C16.9477 5.07948 17.108 4.72083 17.108 4.32488C17.108 3.92894 16.9477 3.57113 16.6883 3.31169Z" fill="#E0C567"/>
</svg>
