<svg width="700" height="295" viewBox="0 0 700 295" fill="none" xmlns="http://www.w3.org/2000/svg">
<path d="M156.35 74.9406H201.314C224.136 79.0476 247.655 75.9555 271.158 110.7C290.219 135.912 286.131 174.678 286.131 177.13C286.131 180.196 282.044 199.612 274.89 208.809C270.55 214.39 255.676 226.366 244.648 235.379C237.502 241.219 237.08 241.168 231.971 246.619C230.853 247.812 228.905 250.023 226.861 256.496C224.817 262.97 223.796 265.693 225.839 273.189C226.32 274.952 229.246 279.661 231.971 283.408C225.499 283.748 221.752 282.044 213.577 282.044C211.942 282.044 209.148 286.473 207.445 289.539C206.083 289.88 202.949 290.357 201.314 289.539C199.679 288.722 201.314 283.748 202.336 281.364C198.248 282.999 187.689 282.045 182.92 281.364C188.642 275.641 205.061 272.167 212.555 271.145C216.642 269.51 216.983 266.376 216.642 265.014C215.906 262.07 218.005 246.619 216.642 242.532C216.549 241.036 216.294 239.677 215.906 238.444C212.905 228.898 202.336 227.203 196.204 227.203C192.117 228.905 188.511 232.852 184.508 244.576C182.677 249.94 181.03 252.454 179.854 256.838C179.854 256.838 184.963 261.606 183.942 267.057C180.876 266.715 168.954 271.145 160.438 277.276L162.482 269.101C160.847 266.649 149.538 272.167 144.088 275.233C141.635 265.422 162.822 258.201 173.723 255.816C172.905 244.371 179.854 227.203 177.81 223.116C175.766 219.028 152.025 216.081 141.81 210.853C121.054 200.229 107.503 186.015 100.146 175.028C97.8493 171.598 96.0584 166.569 95.0365 165.889L90.9489 164.868C87.8832 163.504 43.9416 182.92 40.8759 181.218C38.8321 175.028 10.9002 226.863 0 255.816C8.17518 204.313 33.7226 176.788 31.6789 174.065C30.9976 174.746 31.6789 165.889 34.7446 143.408C39.2165 110.614 58.2482 110.707 63.3577 109.685C67.4453 108.868 78.6861 109.685 86.8614 110.707H100.146L106.277 106.619C115.27 82.9114 143.406 75.6218 156.35 74.9406Z" fill="#5D463D"/>
<path d="M700 220.05V230.269H688.759C688.093 230.269 596.788 226.861 595.766 234.357L592.701 252.751L534.452 261.948C535.474 263.65 496.438 240.284 422.044 268.079L424.088 279.831L426.131 291.583L370.949 294.649C359.027 283.408 332.73 265.627 322.92 284.43C319.854 283.067 313.723 279.933 313.723 278.298V268.079C316.107 266.717 320.467 263.379 318.832 260.926C318.151 258.201 314.54 253.568 305.547 256.838C288.175 257.52 253.022 260.108 251.387 265.014C246.277 265.695 236.876 264.809 240.146 255.816C240.763 249.004 242.527 235.378 244.648 235.378C255.675 226.366 270.55 214.39 274.89 208.809C282.044 199.612 286.131 180.196 286.131 177.13C286.131 151.5 290.219 150.22 292.263 138.298L323.942 97.4223L335.182 94.3566L333.139 100.488C338.929 99.4661 350.715 96.8092 351.533 94.3566C352.555 91.2909 368.905 112.751 370.949 121.948C372.993 131.145 382.19 125.014 386.277 121.948C390.365 118.882 390.365 100.488 395.474 100.488C400.584 100.488 417.956 102.532 421.022 97.4223V92.3128H438.394L445.547 88.2252C451.338 104.576 465.168 136.05 474.161 131.145C483.153 126.24 498.345 104.576 504.818 94.3566C506.861 96.4004 515.241 100.488 532.409 100.488C535.815 102.191 542.423 107.641 541.606 115.816C540.584 126.035 554.388 117.088 555.912 115.816C560 112.409 564.088 104.234 567.153 100.488C568.311 99.0734 579.416 102.19 584.525 100.488L587.591 97.0803L610.073 97.4223V98.4442L616.204 108.663C638.277 156.897 700 217.664 700 220.05Z" fill="#68956F"/>
<path d="M70.5109 195.524C76.2335 193.889 92.6521 181.179 100.146 175.028C107.503 186.015 121.054 200.229 141.81 210.853H138.978C136.253 212.215 129.577 215.145 124.672 215.962C118.54 216.984 116.496 215.962 110.365 210.853C104.234 205.743 115.474 192.64 112.409 195.524C109.343 198.409 72.5547 204.722 70.5109 205.743C68.4671 206.765 63.3577 197.568 70.5109 195.524Z" fill="#68956F"/>
<path d="M196.204 227.203C192.117 228.905 188.511 232.852 184.508 244.576C191.323 245.257 207.142 244.984 215.906 238.444C212.905 228.898 202.336 227.203 196.204 227.203Z" fill="#68956F"/>
<path d="M226.861 67.7873L239.124 68.8092L263.341 100.477C265.946 103.46 268.552 106.848 271.158 110.7L263.341 100.477C242.448 76.5527 221.606 78.5922 201.314 74.9406L217.664 48.3712L226.861 67.7873Z" fill="white"/>
<path d="M452.701 88.2252H445.547L438.394 92.3128H421.022V97.4223C417.956 102.532 400.584 100.488 395.474 100.488C390.365 100.488 390.365 118.882 386.277 121.948C382.19 125.014 372.993 131.145 370.949 121.948C368.905 112.751 352.555 91.2909 351.533 94.3566C350.715 96.8092 338.929 99.4661 333.139 100.488L335.182 94.3566L323.942 97.4223C330.754 95.3785 348.058 81.8895 362.774 44.2836C381.168 -2.72365 383.212 4.42963 388.321 0.342036C392.409 -2.92804 398.2 18.0549 400.584 28.9552C403.65 28.6145 410.803 27.9333 414.891 27.9333C418.978 27.9333 441.801 68.1279 452.701 88.2252Z" fill="white"/>
<path d="M616.204 86.1814L610.073 93.3347V97.4223L587.591 97.0803L584.526 100.488C579.416 102.19 568.311 99.0734 567.153 100.488C564.088 104.234 560 112.409 555.912 115.816C554.388 117.088 540.584 126.035 541.606 115.816C542.423 107.641 535.815 102.191 532.409 100.488C515.241 100.488 506.861 96.4004 504.818 94.3566L555.912 21.8019L563.066 22.8238L570.219 42.2398H581.46L594.745 54.5026L616.204 86.1814Z" fill="white"/>
<path d="M250.32 208C242.16 208 235.787 205.867 231.2 201.6C226.613 197.333 224.32 191.387 224.32 183.76C224.32 176.933 225.893 170.8 229.04 165.36C232.24 159.867 236.64 155.6 242.24 152.56C247.84 149.467 254.107 147.92 261.04 147.92C266.107 147.92 270.133 148.853 273.12 150.72C276.107 152.533 277.6 154.987 277.6 158.08C277.6 160.587 276.72 162.667 274.96 164.32C273.2 165.92 270.96 166.72 268.24 166.72C265.627 166.72 263.227 166.027 261.04 164.64C258.907 163.2 257.2 161.147 255.92 158.48C253.253 159.493 250.827 161.28 248.64 163.84C246.507 166.4 244.827 169.44 243.6 172.96C242.373 176.48 241.76 180.187 241.76 184.08C241.76 188.933 242.587 192.72 244.24 195.44C245.947 198.16 248.293 199.52 251.28 199.52C253.627 199.52 255.76 198.88 257.68 197.6C259.653 196.267 261.227 194.48 262.4 192.24C263.627 190 264.293 187.52 264.4 184.8C267.867 184.8 270.507 185.44 272.32 186.72C274.133 187.947 275.04 189.813 275.04 192.32C275.04 195.2 273.92 197.84 271.68 200.24C269.493 202.64 266.507 204.533 262.72 205.92C258.933 207.307 254.8 208 250.32 208ZM300.782 208C297.795 208 295.155 207.227 292.862 205.68C290.622 204.133 288.889 201.947 287.662 199.12C286.435 196.24 285.822 192.933 285.822 189.2C285.822 183.067 287.155 177.653 289.822 172.96C292.542 168.213 296.302 164.533 301.102 161.92C305.955 159.307 311.502 158 317.742 158C319.982 158 322.089 158.213 324.062 158.64C324.702 160.08 325.022 162.293 325.022 165.28C320.809 165.28 316.915 166.24 313.342 168.16C309.769 170.027 306.915 172.56 304.782 175.76C302.702 178.907 301.662 182.347 301.662 186.08C301.662 188.693 302.195 190.72 303.262 192.16C304.382 193.547 305.929 194.24 307.902 194.24C311.849 194.24 314.995 191.893 317.342 187.2C319.689 182.507 321.369 175.2 322.382 165.28C323.822 163.467 325.395 162.133 327.102 161.28C328.809 160.427 330.729 160 332.862 160C334.729 160 336.169 160.56 337.182 161.68C338.195 162.747 338.702 164.293 338.702 166.32C338.702 167.387 338.515 168.933 338.142 170.96C337.769 172.987 337.315 175.12 336.782 177.36C335.769 181.68 334.995 185.36 334.462 188.4C333.929 191.387 333.662 194.187 333.662 196.8C333.662 200.267 334.489 202.693 336.142 204.08C332.889 206.693 329.449 208 325.822 208C323.102 208 320.995 207.227 319.502 205.68C318.062 204.08 317.342 201.867 317.342 199.04C317.342 198.133 317.422 197.173 317.582 196.16L316.782 195.76C315.289 199.6 313.102 202.613 310.222 204.8C307.395 206.933 304.249 208 300.782 208ZM359.269 208C356.016 208 353.643 207.173 352.149 205.52C350.656 203.867 349.909 201.387 349.909 198.08C349.909 195.947 350.443 191.813 351.509 185.68C352.629 179.547 353.776 173.947 354.949 168.88L350.789 162.48C353.243 161.093 355.696 160 358.149 159.2C360.656 158.4 363.136 158 365.589 158C367.776 158 369.403 158.533 370.469 159.6C371.589 160.667 372.149 162.16 372.149 164.08C372.149 165.413 371.963 166.827 371.589 168.32C371.269 169.76 370.843 171.067 370.309 172.24L371.109 172.64C376.816 162.88 384.069 158 392.869 158C396.123 158 398.549 158.8 400.149 160.4C401.749 161.947 402.549 164.373 402.549 167.68C402.549 169.493 402.363 171.387 401.989 173.36C401.616 175.333 401.056 177.973 400.309 181.28C399.456 184.853 398.816 187.787 398.389 190.08C398.016 192.32 397.829 194.56 397.829 196.8C397.829 200.107 398.389 202.533 399.509 204.08C396.683 206.693 393.749 208 390.709 208C387.456 208 385.083 207.173 383.589 205.52C382.096 203.867 381.349 201.387 381.349 198.08C381.349 195.893 381.589 193.653 382.069 191.36C382.549 189.067 383.243 186.453 384.149 183.52C384.843 181.067 385.349 179.147 385.669 177.76C385.989 176.32 386.149 175.04 386.149 173.92C386.149 171.68 385.243 170.56 383.429 170.56C381.403 170.56 379.029 171.733 376.309 174.08C373.589 176.373 371.243 179.547 369.269 183.6C367.349 187.6 366.389 192 366.389 196.8C366.389 200.107 366.949 202.533 368.069 204.08C365.243 206.693 362.309 208 359.269 208ZM489.559 208C484.705 208.053 480.865 206.853 478.039 204.4C475.265 201.947 472.892 197.547 470.919 191.2C468.945 184.853 466.892 175.227 464.759 162.32H459.639L458.599 147.92C463.025 147.92 466.439 148.88 468.839 150.8C471.239 152.72 473.239 156.32 474.839 161.6C476.439 166.88 478.172 175.2 480.039 186.56H488.839L489.559 208ZM451.079 208.08C447.665 208.08 445.185 207.227 443.639 205.52C442.092 203.813 441.319 201.067 441.319 197.28C441.319 194.933 441.639 191.413 442.279 186.72C442.972 182.027 444.332 173.893 446.359 162.32L442.119 153.76C448.145 149.867 453.639 147.92 458.599 147.92C462.705 147.92 464.759 150.427 464.759 155.44C464.759 156.613 464.439 159.013 463.799 162.64C463.212 166.213 462.545 169.973 461.799 173.92C460.785 179.36 459.985 183.787 459.399 187.2C458.865 190.613 458.599 193.04 458.599 194.48C458.599 196.933 458.759 198.907 459.079 200.4C459.452 201.893 460.092 203.253 460.999 204.48C457.959 206.88 454.652 208.08 451.079 208.08ZM489.559 208C486.145 208 483.665 207.147 482.119 205.44C480.572 203.733 479.799 200.987 479.799 197.2C479.799 194.853 480.119 191.333 480.759 186.64C481.452 181.947 482.812 173.813 484.839 162.24L481.399 153.68C487.052 149.787 492.279 147.84 497.079 147.84C501.185 147.84 503.239 150.347 503.239 155.36C503.239 156.533 502.919 158.933 502.279 162.56C501.692 166.133 501.025 169.893 500.279 173.84C499.265 179.28 498.465 183.707 497.879 187.12C497.345 190.533 497.079 192.96 497.079 194.4C497.079 196.853 497.239 198.827 497.559 200.32C497.932 201.813 498.572 203.173 499.479 204.4C496.439 206.8 493.132 208 489.559 208ZM516.461 194.56L541.181 163.28L560.861 160.88L532.301 197.68L516.461 194.56ZM548.541 208.4C545.181 208.4 542.035 208 539.101 207.2C536.221 206.453 532.595 205.253 528.221 203.6H528.141C526.275 205.093 524.568 206.16 523.021 206.8C521.475 207.44 519.795 207.76 517.981 207.76C515.635 207.76 513.715 206.987 512.221 205.44C510.728 203.893 509.981 201.92 509.981 199.52C509.981 196.32 511.181 193.707 513.581 191.68C515.981 189.6 519.075 188.533 522.861 188.48C524.195 188.48 525.795 188.72 527.661 189.2C529.581 189.68 532.061 190.373 535.101 191.28C538.355 192.293 541.021 193.067 543.101 193.6C545.181 194.08 546.995 194.32 548.541 194.32L560.621 189.12C561.315 190.827 561.821 192.373 562.141 193.76C562.461 195.093 562.621 196.4 562.621 197.68C562.621 199.653 561.981 201.467 560.701 203.12C559.475 204.72 557.795 206 555.661 206.96C553.528 207.92 551.155 208.4 548.541 208.4ZM541.661 167.6C535.475 167.6 530.515 167.2 526.781 166.4C523.101 165.547 520.408 164.24 518.701 162.48C517.048 160.667 516.221 158.24 516.221 155.2C516.221 154.08 516.328 152.853 516.541 151.52C516.808 150.187 517.181 148.827 517.661 147.44C521.928 149.2 526.861 150.827 532.461 152.32C538.061 153.76 542.461 154.56 545.661 154.72C547.261 152.427 548.968 150.72 550.781 149.6C552.595 148.48 554.515 147.92 556.541 147.92C559.155 147.92 561.181 148.64 562.621 150.08C564.115 151.467 564.861 153.413 564.861 155.92C564.861 159.6 562.808 162.48 558.701 164.56C554.648 166.587 548.968 167.6 541.661 167.6Z" fill="white"/>
</svg>
