<svg width="343" height="145" viewBox="0 0 343 145" fill="none" xmlns="http://www.w3.org/2000/svg">
<path d="M76.5 36.6674H98.5C109.667 38.6769 121.174 37.1639 132.674 54.1639C142 66.5 140 85.4674 140 86.6674C140 88.1674 138 97.6674 134.5 102.167C132.376 104.898 125.098 110.758 119.703 115.167C116.206 118.025 116 118 113.5 120.667C112.953 121.251 112 122.333 111 125.5C110 128.667 109.5 130 110.5 133.667C110.735 134.53 112.167 136.834 113.5 138.667C110.333 138.834 108.5 138 104.5 138C103.7 138 102.333 140.167 101.5 141.667C100.833 141.834 99.3 142.067 98.5 141.667C97.7 141.267 98.5 138.834 99 137.667C97 138.467 91.8333 138.001 89.5 137.667C92.3 134.867 100.333 133.167 104 132.667C106 131.867 106.167 130.334 106 129.667C105.64 128.227 106.667 120.667 106 118.667C105.954 117.935 105.83 117.271 105.64 116.667C104.171 111.996 99 111.167 96 111.167C94 112 92.2359 113.931 90.2773 119.667C89.3811 122.292 88.5755 123.522 88 125.667C88 125.667 90.5 128 90 130.667C88.5 130.5 82.6667 132.667 78.5 135.667L79.5 131.667C78.7 130.467 73.1667 133.167 70.5 134.667C69.3 129.867 79.6667 126.334 85 125.167C84.6 119.567 88 111.167 87 109.167C86 107.167 74.3838 105.726 69.3857 103.167C59.2302 97.9694 52.5996 91.0144 49 85.6388C47.8763 83.9605 47 81.5 46.5 81.1674L44.5 80.6674C43 80 21.5 89.5 20 88.6674C19 85.6388 5.33333 111.001 0 125.167C4 99.9674 16.5 86.5 15.5 85.1674C15.1667 85.5007 15.5 81.1674 17 70.1674C19.1881 54.1217 28.5 54.1674 31 53.6674C33 53.2674 38.5 53.6674 42.5 54.1674H49L52 52.1674C56.4 40.5674 70.1667 37.0007 76.5 36.6674Z" fill="#5D463D"/>
<path d="M342.5 107.667V112.667H337C336.674 112.667 292 111 291.5 114.667L290 123.667L261.5 128.167C262 129 242.9 117.567 206.5 131.167L207.5 136.917L208.5 142.667L181.5 144.167C175.667 138.667 162.8 129.967 158 139.167C156.5 138.501 153.5 136.967 153.5 136.167V131.167C154.667 130.501 156.8 128.867 156 127.667C155.667 126.334 153.9 124.067 149.5 125.667C141 126.001 123.8 127.267 123 129.667C120.5 130.001 115.9 129.567 117.5 125.167C117.802 121.834 118.665 115.167 119.703 115.167C125.098 110.758 132.376 104.898 134.5 102.167C138 97.6674 140 88.1674 140 86.6674C140 85.4674 142 73.5007 143 67.6674L158.5 47.6674L164 46.1674L163 49.1674C165.833 48.6674 171.6 47.3674 172 46.1674C172.5 44.6674 180.5 55.1674 181.5 59.6674C182.5 64.1674 187 61.1674 189 59.6674C191 58.1674 191 49.1674 193.5 49.1674C196 49.1674 204.5 50.1674 206 47.6674V45.1674H214.5L218 43.1674C220.833 51.1674 227.6 66.5674 232 64.1674C236.4 61.7674 243.833 51.1674 247 46.1674C248 47.1674 252.1 49.1674 260.5 49.1674C262.167 50.0007 265.4 52.6674 265 56.6674C264.5 61.6674 271.254 57.2893 272 56.6674C274 55 276 51 277.5 49.1674C278.067 48.4752 283.5 50 286 49.1674L287.5 47.5L298.5 47.6674V48.1674L301.5 53.1674C312.3 76.7674 342.5 106.5 342.5 107.667Z" fill="#68956F"/>
<path d="M34.5 95.6674C37.3 94.8674 45.3333 88.6483 49 85.6388C52.5996 91.0144 59.2302 97.9695 69.3857 103.167H68C66.6667 103.834 63.4 105.267 61 105.667C58 106.167 57 105.667 54 103.167C51 100.667 56.5 94.2561 55 95.6674C53.5 97.0786 35.5 100.167 34.5 100.667C33.5 101.167 31 96.6674 34.5 95.6674Z" fill="#68956F"/>
<path d="M96 111.167C94 112 92.2359 113.931 90.2773 119.667C93.6115 120.001 101.352 119.867 105.64 116.667C104.171 111.996 99 111.167 96 111.167Z" fill="#68956F"/>
<path d="M111 33.1674L117 33.6674L128.849 49.162C130.124 50.6217 131.399 52.279 132.674 54.1639L128.849 49.162C118.626 37.4561 108.429 38.4541 98.5 36.6674L106.5 23.6674L111 33.1674Z" fill="#F2F2F2"/>
<path d="M221.5 43.1674H218L214.5 45.1674H206V47.6674C204.5 50.1674 196 49.1674 193.5 49.1674C191 49.1674 191 58.1674 189 59.6674C187 61.1674 182.5 64.1674 181.5 59.6674C180.5 55.1674 172.5 44.6674 172 46.1674C171.6 47.3674 165.833 48.6674 163 49.1674L164 46.1674L158.5 47.6674C161.833 46.6674 170.3 40.0674 177.5 21.6674C186.5 -1.33264 187.5 2.16735 190 0.167353C192 -1.43265 194.833 8.83402 196 14.1674C197.5 14.0007 201 13.6674 203 13.6674C205 13.6674 216.167 33.334 221.5 43.1674Z" fill="#F2F2F2"/>
<path d="M301.5 42.1674L298.5 45.6674V47.6674L287.5 47.5L286 49.1674C283.5 50 278.067 48.4752 277.5 49.1674C276 51 274 55 272 56.6674C271.254 57.2893 264.5 61.6674 265 56.6674C265.4 52.6674 262.167 50.0007 260.5 49.1674C252.1 49.1674 248 47.1674 247 46.1674L272 10.6674L275.5 11.1674L279 20.6674H284.5L291 26.6674L301.5 42.1674Z" fill="#F2F2F2"/>
<path d="M140.088 99.211C140.088 99.399 140.072 99.587 140.041 99.775C140.01 99.963 139.947 100.135 139.853 100.292C139.446 101.263 138.803 102.219 137.926 103.159C137.08 104.068 136.203 104.82 135.294 105.415C133.884 106.355 132.38 107.013 130.782 107.389C129.215 107.765 127.602 107.953 125.941 107.953C122.588 107.953 119.69 107.248 117.246 105.838C114.833 104.397 112.985 102.407 111.7 99.869C110.415 97.331 109.773 94.417 109.773 91.127C109.773 88.683 110.133 86.3957 110.854 84.265C111.575 82.1343 112.624 80.27 114.003 78.672C115.382 77.0427 117.074 75.7737 119.079 74.865C121.084 73.925 123.372 73.455 125.941 73.455C127.194 73.455 128.385 73.6587 129.513 74.066C130.672 74.442 131.832 74.8337 132.991 75.241C133.649 75.4603 134.323 75.6327 135.012 75.758C135.733 75.8833 136.438 75.9773 137.127 76.04C137.158 76.7293 137.205 77.4187 137.268 78.108C137.331 78.766 137.409 79.4397 137.503 80.129C137.597 80.7557 137.707 81.398 137.832 82.056C137.989 82.6827 138.067 83.325 138.067 83.983C138.067 84.4843 137.957 84.8917 137.738 85.205C137.55 85.5183 137.174 85.675 136.61 85.675C136.297 85.675 136.062 85.5027 135.905 85.158C135.78 84.8447 135.67 84.5157 135.576 84.171C135.513 83.795 135.435 83.4503 135.341 83.137C135.09 82.103 134.667 81.022 134.072 79.894C133.477 78.7347 132.756 77.8103 131.91 77.121C131.534 76.7763 130.97 76.4317 130.218 76.087C129.497 75.7423 128.745 75.4603 127.962 75.241C127.21 75.0217 126.568 74.912 126.035 74.912C125.095 74.912 124.139 75.0843 123.168 75.429C122.197 75.7737 121.335 76.228 120.583 76.792C119.173 77.8887 118.045 79.2203 117.199 80.787C116.353 82.3223 115.742 83.9673 115.366 85.722C115.021 87.4767 114.849 89.2157 114.849 90.939C114.849 92.819 115.068 94.6677 115.507 96.485C115.946 98.271 116.635 99.8847 117.575 101.326C118.515 102.767 119.737 103.927 121.241 104.804C122.745 105.65 124.578 106.073 126.74 106.073C127.649 106.073 128.667 105.948 129.795 105.697C130.923 105.415 131.894 105.102 132.709 104.757C133.68 104.35 134.573 103.833 135.388 103.206C136.203 102.548 136.939 101.812 137.597 100.997C137.66 100.934 137.785 100.746 137.973 100.433C138.192 100.12 138.412 99.8063 138.631 99.493C138.85 99.1797 138.991 98.9917 139.054 98.929C139.211 98.741 139.383 98.647 139.571 98.647C139.916 98.647 140.088 98.835 140.088 99.211ZM159.951 102.501C159.825 101.091 159.747 99.681 159.716 98.271C159.716 96.8297 159.7 95.3883 159.669 93.947H159.011C158.039 93.947 156.958 94.1037 155.768 94.417C154.608 94.699 153.496 95.1377 152.431 95.733C151.365 96.3283 150.488 97.0803 149.799 97.989C149.141 98.8663 148.812 99.8847 148.812 101.044C148.812 102.548 149.235 103.692 150.081 104.475C150.927 105.227 152.07 105.603 153.512 105.603C154.201 105.603 154.953 105.446 155.768 105.133C156.582 104.788 157.366 104.381 158.118 103.911C158.87 103.441 159.481 102.971 159.951 102.501ZM168.176 105.509C168.176 105.634 168.16 105.728 168.129 105.791C167.815 106.48 167.283 107.013 166.531 107.389C165.81 107.734 165.089 107.906 164.369 107.906C163.053 107.906 162.097 107.53 161.502 106.778C160.938 105.995 160.483 105.039 160.139 103.911C158.948 105.008 157.632 105.932 156.191 106.684C154.749 107.405 153.198 107.765 151.538 107.765C150.378 107.765 149.282 107.546 148.248 107.107C147.245 106.637 146.43 105.963 145.804 105.086C145.177 104.209 144.864 103.143 144.864 101.89C144.864 100.574 145.193 99.446 145.851 98.506C146.54 97.5347 147.402 96.72 148.436 96.062C149.501 95.3727 150.629 94.8243 151.82 94.417C153.042 93.9783 154.185 93.6493 155.251 93.43C155.971 93.2733 156.708 93.1323 157.46 93.007C158.212 92.8817 158.948 92.7563 159.669 92.631C159.669 91.7537 159.622 90.7353 159.528 89.576C159.465 88.4167 159.23 87.461 158.823 86.709C158.415 85.9883 157.867 85.346 157.178 84.782C156.488 84.218 155.721 83.936 154.875 83.936C153.433 83.936 152.305 84.312 151.491 85.064C150.676 85.816 150.096 86.8813 149.752 88.26C149.72 88.4167 149.689 88.589 149.658 88.777C149.658 88.9337 149.642 89.0903 149.611 89.247C149.579 89.435 149.454 89.6073 149.235 89.764C149.047 89.8893 148.843 89.952 148.624 89.952C148.028 89.952 147.48 89.811 146.979 89.529C146.509 89.247 146.274 88.777 146.274 88.119C146.274 87.743 146.336 87.414 146.462 87.132C146.869 86.1607 147.527 85.3617 148.436 84.735C149.344 84.077 150.347 83.5757 151.444 83.231C152.572 82.8863 153.621 82.714 154.593 82.714C156.285 82.714 157.82 83.0273 159.199 83.654C160.577 84.2807 161.674 85.205 162.489 86.427C163.335 87.6177 163.758 89.1217 163.758 90.939C163.758 92.9757 163.742 95.028 163.711 97.096C163.711 99.164 163.773 101.232 163.899 103.3C163.93 103.989 164.071 104.6 164.322 105.133C164.572 105.634 165.089 105.885 165.873 105.885C166.28 105.885 166.703 105.791 167.142 105.603C167.612 105.384 167.909 105.274 168.035 105.274C168.129 105.274 168.176 105.352 168.176 105.509ZM199.381 107.295C199.381 107.702 199.146 107.906 198.676 107.906C197.987 107.906 197.282 107.89 196.561 107.859C195.84 107.796 195.12 107.765 194.399 107.765C193.334 107.765 192.237 107.796 191.109 107.859C190.012 107.89 188.916 107.906 187.819 107.906C187.694 107.906 187.615 107.812 187.584 107.624C187.553 107.405 187.537 107.232 187.537 107.107C187.537 106.856 187.694 106.731 188.007 106.731C188.32 106.731 188.571 106.731 188.759 106.731C188.916 106.731 189.072 106.747 189.229 106.778C189.417 106.778 189.589 106.778 189.746 106.778C190.655 106.778 191.156 106.324 191.25 105.415C191.344 103.566 191.375 101.702 191.344 99.822C191.344 97.942 191.344 96.0777 191.344 94.229C191.344 93.8843 191.344 93.5397 191.344 93.195C191.344 92.819 191.344 92.4587 191.344 92.114C191.313 91.3933 191.266 90.516 191.203 89.482C191.14 88.4167 190.999 87.555 190.78 86.897C190.279 85.2677 189.182 84.453 187.49 84.453C185.955 84.453 184.545 84.8447 183.26 85.628C181.975 86.4113 180.863 87.3983 179.923 88.589C179.892 90.8763 179.876 93.148 179.876 95.404C179.876 97.66 179.876 99.916 179.876 102.172V105.415C179.876 105.885 180.08 106.23 180.487 106.449C180.894 106.668 181.302 106.778 181.709 106.778C181.96 106.778 182.195 106.762 182.414 106.731C182.665 106.668 182.9 106.637 183.119 106.637C183.244 106.637 183.323 106.715 183.354 106.872C183.385 107.029 183.401 107.154 183.401 107.248C183.401 107.373 183.354 107.514 183.26 107.671C183.197 107.828 183.072 107.906 182.884 107.906C182.195 107.906 181.505 107.89 180.816 107.859C180.158 107.796 179.484 107.765 178.795 107.765C177.73 107.765 176.664 107.796 175.599 107.859C174.534 107.89 173.453 107.906 172.356 107.906C172.199 107.906 172.105 107.812 172.074 107.624C172.074 107.405 172.074 107.232 172.074 107.107C172.074 106.856 172.215 106.731 172.497 106.731C172.779 106.731 172.998 106.731 173.155 106.731C173.312 106.731 173.468 106.747 173.625 106.778C173.782 106.778 173.938 106.778 174.095 106.778C175.004 106.778 175.505 106.324 175.599 105.415C175.63 104.976 175.646 104.538 175.646 104.099C175.646 103.66 175.646 103.222 175.646 102.783C175.646 100.088 175.646 97.3937 175.646 94.699C175.646 91.973 175.63 89.2627 175.599 86.568C175.599 86.1293 175.505 85.6907 175.317 85.252C175.129 84.8133 174.769 84.594 174.236 84.594C173.829 84.594 173.437 84.6567 173.061 84.782C172.685 84.9073 172.293 84.97 171.886 84.97C171.667 84.97 171.557 84.8133 171.557 84.5C171.557 84.4373 171.557 84.3747 171.557 84.312C171.588 84.218 171.62 84.1553 171.651 84.124C171.682 84.0927 171.729 84.077 171.792 84.077C171.855 84.0457 171.902 84.0143 171.933 83.983C172.497 83.8263 173.077 83.7167 173.672 83.654C174.299 83.5913 174.894 83.4973 175.458 83.372C175.991 83.278 176.508 83.1527 177.009 82.996C177.51 82.808 178.012 82.714 178.513 82.714C178.732 82.714 178.905 82.8237 179.03 83.043C179.187 83.325 179.312 83.7323 179.406 84.265C179.5 84.7663 179.563 85.2833 179.594 85.816C179.657 86.3487 179.688 86.7873 179.688 87.132C180.377 86.4427 181.192 85.769 182.132 85.111C183.103 84.4217 184.106 83.8577 185.14 83.419C186.205 82.949 187.239 82.714 188.242 82.714C191.125 82.714 193.067 83.3563 194.07 84.641C195.104 85.8943 195.621 87.884 195.621 90.61C195.621 93.054 195.605 95.498 195.574 97.942C195.574 100.386 195.574 102.83 195.574 105.274C195.574 105.869 195.746 106.277 196.091 106.496C196.467 106.684 196.906 106.778 197.407 106.778C197.658 106.778 197.908 106.762 198.159 106.731C198.41 106.668 198.645 106.637 198.864 106.637C199.052 106.637 199.177 106.715 199.24 106.872C199.334 106.997 199.381 107.138 199.381 107.295ZM251.543 74.348C251.543 74.442 251.512 74.583 251.449 74.771C251.387 74.9277 251.277 75.006 251.12 75.006C250.87 75.006 250.619 75.006 250.368 75.006C250.118 74.9747 249.867 74.959 249.616 74.959C248.77 74.959 248.175 75.053 247.83 75.241C247.517 75.3977 247.329 75.6797 247.266 76.087C247.235 76.4943 247.219 77.0583 247.219 77.779V107.436C247.219 107.718 247.11 107.859 246.89 107.859L244.775 107.906C244.65 107.217 244.415 106.527 244.07 105.838C243.757 105.149 243.381 104.522 242.942 103.958C239.558 99.5087 236.174 95.0907 232.79 90.704C229.406 86.286 226.069 81.8367 222.779 77.356V105.415C222.779 105.854 222.936 106.167 223.249 106.355C223.594 106.512 223.97 106.606 224.377 106.637C224.816 106.637 225.192 106.637 225.505 106.637C225.756 106.637 225.991 106.637 226.21 106.637C226.461 106.606 226.712 106.59 226.962 106.59C227.244 106.59 227.385 106.762 227.385 107.107C227.385 107.358 227.354 107.577 227.291 107.765C227.26 107.953 227.072 108.047 226.727 108.047C226.445 108.047 226.148 108.031 225.834 108C225.552 107.937 225.27 107.89 224.988 107.859C224.518 107.796 224.033 107.781 223.531 107.812C223.03 107.812 222.544 107.812 222.074 107.812C221.197 107.812 220.335 107.859 219.489 107.953C218.675 108.016 217.829 108.047 216.951 108.047C216.732 108.047 216.622 107.906 216.622 107.624C216.622 107.154 216.669 106.872 216.763 106.778C216.857 106.684 217.124 106.637 217.562 106.637C217.813 106.637 218.048 106.653 218.267 106.684C218.518 106.684 218.753 106.684 218.972 106.684C219.474 106.684 219.912 106.621 220.288 106.496C220.696 106.371 220.915 106.01 220.946 105.415C221.009 103.911 221.025 102.391 220.993 100.856C220.962 99.3207 220.946 97.801 220.946 96.297C220.946 93.007 220.962 89.717 220.993 86.427C221.056 83.137 221.087 79.8313 221.087 76.51C221.087 75.946 220.931 75.5543 220.617 75.335C220.335 75.0843 219.975 74.9433 219.536 74.912C219.098 74.8807 218.659 74.865 218.22 74.865C218.064 74.865 217.891 74.8807 217.703 74.912C217.515 74.912 217.343 74.912 217.186 74.912C216.779 74.912 216.575 74.7553 216.575 74.442C216.575 74.2227 216.591 74.0347 216.622 73.878C216.685 73.69 216.857 73.596 217.139 73.596C217.954 73.596 218.769 73.6273 219.583 73.69C220.398 73.7213 221.213 73.737 222.027 73.737C222.591 73.737 223.155 73.737 223.719 73.737C224.315 73.7057 224.894 73.69 225.458 73.69C226.618 75.2567 227.808 76.792 229.03 78.296C230.252 79.8 231.474 81.304 232.696 82.808C234.827 85.4087 236.958 88.0093 239.088 90.61C241.219 93.1793 243.35 95.7643 245.48 98.365V76.181C245.48 75.7423 245.245 75.429 244.775 75.241C244.305 75.053 243.898 74.959 243.553 74.959C243.146 74.959 242.754 74.9747 242.378 75.006C242.002 75.0373 241.611 75.053 241.203 75.053C240.984 75.053 240.874 74.8963 240.874 74.583C240.874 74.489 240.874 74.395 240.874 74.301C240.874 74.1757 240.89 74.0817 240.921 74.019C240.921 73.737 241.094 73.596 241.438 73.596C241.877 73.596 242.331 73.6273 242.801 73.69C243.271 73.7213 243.726 73.737 244.164 73.737C245.355 73.737 246.53 73.7213 247.689 73.69C248.849 73.6587 250.008 73.596 251.167 73.502C251.355 73.6273 251.465 73.7527 251.496 73.878C251.528 73.972 251.543 74.1287 251.543 74.348ZM283.093 97.19C283.093 97.5347 283.046 97.895 282.952 98.271C282.89 98.6157 282.827 98.9603 282.764 99.305C282.67 100.026 282.576 100.762 282.482 101.514C282.42 102.266 282.341 103.002 282.247 103.723C282.185 104.318 282.153 104.945 282.153 105.603C282.185 106.23 282.138 106.825 282.012 107.389C281.95 107.702 281.824 107.875 281.636 107.906C281.48 107.906 281.276 107.906 281.025 107.906C280.806 107.906 280.571 107.875 280.32 107.812C280.101 107.749 279.866 107.718 279.615 107.718C279.396 107.687 279.177 107.687 278.957 107.718C278.738 107.718 278.519 107.718 278.299 107.718C276.576 107.718 274.868 107.718 273.176 107.718C271.484 107.687 269.777 107.671 268.053 107.671C266.142 107.671 264.215 107.718 262.272 107.812C260.361 107.875 258.434 107.906 256.491 107.906C255.551 107.906 255.081 107.483 255.081 106.637C255.081 106.292 255.175 106.01 255.363 105.791C255.614 105.352 255.88 104.929 256.162 104.522C256.476 104.115 256.789 103.707 257.102 103.3L261.285 97.378C263.479 94.3073 265.672 91.2367 267.865 88.166C270.059 85.0953 272.158 81.962 274.163 78.766C274.414 78.39 274.68 77.9357 274.962 77.403C275.244 76.8703 275.385 76.369 275.385 75.899C275.385 75.617 275.197 75.4133 274.821 75.288C274.477 75.1627 274.085 75.0843 273.646 75.053C273.239 75.0217 272.926 75.006 272.706 75.006C272.174 75.006 271.453 75.006 270.544 75.006C269.667 75.006 268.743 75.0217 267.771 75.053C266.8 75.0843 265.891 75.147 265.045 75.241C264.199 75.3037 263.557 75.3977 263.118 75.523C262.053 75.8363 261.097 76.4787 260.251 77.45C259.437 78.4213 258.826 79.4083 258.418 80.411C258.168 81.1003 257.98 81.774 257.854 82.432C257.823 82.6513 257.745 82.855 257.619 83.043C257.494 83.231 257.29 83.325 257.008 83.325C256.664 83.325 256.491 83.1683 256.491 82.855C256.491 81.6017 256.538 80.364 256.632 79.142C256.726 77.8887 256.773 76.6353 256.773 75.382C256.773 74.8493 256.883 74.4577 257.102 74.207C257.322 73.9563 257.713 73.831 258.277 73.831C258.685 73.831 259.076 73.8467 259.452 73.878C259.828 73.878 260.22 73.878 260.627 73.878C261.035 73.878 261.442 73.878 261.849 73.878C262.288 73.878 262.711 73.8623 263.118 73.831C266.158 73.737 269.181 73.69 272.189 73.69C275.229 73.6587 278.268 73.643 281.307 73.643C281.621 73.643 281.871 73.7057 282.059 73.831C282.247 73.925 282.341 74.1443 282.341 74.489C282.341 74.7397 282.279 74.9747 282.153 75.194C282.028 75.4133 281.887 75.617 281.73 75.805L262.742 102.454C262.523 102.767 262.225 103.206 261.849 103.77C261.473 104.303 261.285 104.757 261.285 105.133C261.285 105.509 261.489 105.775 261.896 105.932C262.335 106.089 262.805 106.183 263.306 106.214C263.839 106.245 264.231 106.261 264.481 106.261C264.732 106.261 264.983 106.261 265.233 106.261C265.515 106.23 265.766 106.214 265.985 106.214C267.333 106.214 268.68 106.198 270.027 106.167C271.375 106.104 272.722 106.01 274.069 105.885C275.573 105.697 276.827 105.164 277.829 104.287C278.832 103.41 279.647 102.36 280.273 101.138C280.931 99.8847 281.464 98.6313 281.871 97.378C281.934 97.19 281.965 97.0803 281.965 97.049C282.059 96.9237 282.122 96.8297 282.153 96.767C282.216 96.7043 282.341 96.673 282.529 96.673C282.905 96.673 283.093 96.8453 283.093 97.19Z" fill="#E9E9E9"/>
</svg>
