<svg width="51" height="52" viewBox="0 0 51 52" fill="none" xmlns="http://www.w3.org/2000/svg">
<path d="M25.5019 6.08793C23.8276 6.08793 22.4668 4.72275 22.4668 3.04634C22.4668 1.37207 23.8298 0.0112305 25.5019 0.0112305C27.1783 0.0112305 28.5435 1.37426 28.5435 3.04634C28.5435 4.72275 27.1805 6.08793 25.5019 6.08793ZM25.5019 1.11023C24.433 1.11023 23.5658 1.97954 23.5658 3.04634C23.5658 4.11742 24.4351 4.98893 25.5019 4.98893C26.573 4.98893 27.4445 4.11748 27.4445 3.04634C27.4445 1.9774 26.573 1.11023 25.5019 1.11023Z" fill="#6580A8"/>
<path d="M28.8367 9.4196H22.1696C21.8648 9.4196 21.6201 9.1749 21.6201 8.8701C21.6201 6.73007 23.3609 4.98926 25.501 4.98926C27.6431 4.98926 29.3861 6.73007 29.3861 8.8701C29.3861 9.1749 29.1394 9.4196 28.8367 9.4196ZM22.7752 8.3206H28.2337C27.9783 7.04988 26.8492 6.08826 25.5012 6.08826C24.1553 6.08826 23.0306 7.04774 22.7752 8.3206Z" fill="#6580A8"/>
<path d="M25.5019 48.3223C23.8276 48.3223 22.4668 46.9571 22.4668 45.2807C22.4668 43.6064 23.8298 42.2456 25.5019 42.2456C27.1783 42.2456 28.5435 43.6086 28.5435 45.2807C28.5435 46.9571 27.1805 48.3223 25.5019 48.3223ZM25.5019 43.3425C24.433 43.3425 23.5658 44.2118 23.5658 45.2786C23.5658 46.3497 24.4351 47.2212 25.5019 47.2212C26.573 47.2212 27.4445 46.3497 27.4445 45.2786C27.4445 44.2096 26.573 43.3425 25.5019 43.3425Z" fill="#6580A8"/>
<path d="M28.8367 51.6535H22.1696C21.8648 51.6535 21.6201 51.4088 21.6201 51.104C21.6201 48.964 23.3609 47.2231 25.501 47.2231C27.6431 47.2231 29.3861 48.964 29.3861 51.104C29.3861 51.4088 29.1394 51.6535 28.8367 51.6535ZM22.7752 50.5545H28.2337C27.9783 49.2838 26.8492 48.3221 25.5012 48.3221C24.1553 48.3221 23.0306 49.2838 22.7752 50.5545Z" fill="#6580A8"/>
<path d="M40.4326 12.272C38.7583 12.272 37.3975 10.9068 37.3975 9.23042C37.3975 7.55615 38.7605 6.19531 40.4326 6.19531C42.109 6.19531 43.4742 7.55835 43.4742 9.23042C43.4742 10.9068 42.109 12.272 40.4326 12.272ZM40.4326 7.29431C39.3636 7.29431 38.4965 8.16362 38.4965 9.23042C38.4965 10.3015 39.3658 11.173 40.4326 11.173C41.5037 11.173 42.3752 10.3016 42.3752 9.23042C42.3752 8.16148 41.5037 7.29431 40.4326 7.29431Z" fill="#6580A8"/>
<path d="M43.7683 15.6037H37.1013C36.7965 15.6037 36.5518 15.359 36.5518 15.0542C36.5518 12.9142 38.2926 11.1733 40.4326 11.1733C42.5748 11.1733 44.3177 12.9142 44.3177 15.0542C44.3177 15.3568 44.0731 15.6037 43.7683 15.6037ZM37.7068 14.5047H43.1653C42.9099 13.234 41.7809 12.2723 40.4328 12.2723C39.087 12.2723 37.9622 13.2318 37.7068 14.5047Z" fill="#6580A8"/>
<path d="M10.5685 42.1382C8.89423 42.1382 7.53125 40.773 7.53125 39.0966C7.53125 37.4224 8.89428 36.0615 10.5664 36.0615C12.2428 36.0615 13.608 37.4246 13.608 39.0966C13.608 40.773 12.2449 42.1382 10.5664 42.1382H10.5685ZM10.5685 37.1584C9.49956 37.1584 8.63239 38.0277 8.63239 39.0945C8.63239 40.1656 9.5017 41.0371 10.5706 41.0371C11.6417 41.0371 12.5132 40.1656 12.5132 39.0945C12.5132 38.0255 11.6418 37.1584 10.5706 37.1584H10.5685Z" fill="#6580A8"/>
<path d="M13.9041 45.4675H7.237C6.93435 45.4675 6.6875 45.2228 6.6875 44.918C6.6875 42.7779 8.42832 41.0371 10.5683 41.0371C12.7105 41.0371 14.4535 42.7779 14.4535 44.918C14.4535 45.2228 14.2067 45.4675 13.9041 45.4675ZM7.84035 44.3685H13.2989C13.0434 43.0977 11.9144 42.1361 10.5664 42.1361C9.22053 42.1361 8.09576 43.0977 7.83821 44.3685H7.84035Z" fill="#6580A8"/>
<path d="M46.6191 27.2051C44.9448 27.2051 43.584 25.8399 43.584 24.1635C43.584 22.4893 44.947 21.1284 46.6191 21.1284C48.2955 21.1284 49.6607 22.4915 49.6607 24.1657C49.6607 25.8421 48.2955 27.2073 46.6191 27.2073V27.2051ZM46.6191 22.2253C45.5502 22.2253 44.683 23.0946 44.683 24.1614C44.683 25.2325 45.5523 26.104 46.6191 26.104C47.6902 26.104 48.5617 25.2325 48.5617 24.1614C48.5617 23.0946 47.6902 22.2231 46.6191 22.2231V22.2253Z" fill="#6580A8"/>
<path d="M49.9549 30.5363H43.2878C42.983 30.5363 42.7383 30.2916 42.7383 29.9868C42.7383 27.8468 44.4791 26.106 46.6191 26.106C48.7613 26.106 50.5043 27.8468 50.5043 29.9868C50.5043 30.2895 50.2597 30.5363 49.9549 30.5363ZM43.8933 29.4373H49.3518C49.0964 28.1666 47.9674 27.205 46.6193 27.205C45.2735 27.205 44.1487 28.1644 43.8933 29.4373Z" fill="#6580A8"/>
<path d="M4.38179 27.2051C2.70752 27.2051 1.34668 25.8399 1.34668 24.1635C1.34668 22.4893 2.70971 21.1284 4.38179 21.1284C6.0582 21.1284 7.42338 22.4915 7.42338 24.1635C7.42338 25.8399 6.0582 27.2051 4.38179 27.2051ZM4.38179 22.2253C3.31285 22.2253 2.44568 23.0946 2.44568 24.1614C2.44568 25.2325 3.31499 26.104 4.38179 26.104C5.45287 26.104 6.32438 25.2325 6.32438 24.1614C6.32438 23.0946 5.45293 22.2253 4.38179 22.2253Z" fill="#6580A8"/>
<path d="M7.72049 30.5363H1.05341C0.750753 30.5363 0.503906 30.2916 0.503906 29.9868C0.503906 27.8468 2.24472 26.106 4.38475 26.106C6.52692 26.106 8.26988 27.8468 8.26988 29.9868C8.26988 30.2895 8.02314 30.5363 7.72049 30.5363ZM1.65896 29.4373H7.11747C6.86204 28.1666 5.733 27.205 4.38497 27.205C3.03913 27.205 1.91436 28.1644 1.65681 29.4373H1.65896Z" fill="#6580A8"/>
<path d="M40.4326 42.1382C38.7583 42.1382 37.3975 40.773 37.3975 39.0966C37.3975 37.4224 38.7605 36.0615 40.4326 36.0615C42.109 36.0615 43.4742 37.4246 43.4742 39.0966C43.4742 40.773 42.109 42.1382 40.4326 42.1382ZM40.4326 37.1584C39.3636 37.1584 38.4965 38.0277 38.4965 39.0945C38.4965 40.1656 39.3658 41.0371 40.4326 41.0371C41.5037 41.0371 42.3752 40.1656 42.3752 39.0945C42.3752 38.0255 41.5037 37.1584 40.4326 37.1584Z" fill="#6580A8"/>
<path d="M43.7683 45.4675H37.1013C36.7965 45.4675 36.5518 45.2228 36.5518 44.918C36.5518 42.7779 38.2926 41.0371 40.4326 41.0371C42.5748 41.0371 44.3177 42.7779 44.3177 44.918C44.3177 45.2228 44.0731 45.4675 43.7683 45.4675ZM37.7068 44.3685H43.1653C42.9099 43.0977 41.7809 42.1361 40.4328 42.1361C39.087 42.1361 37.9622 43.0977 37.7068 44.3685Z" fill="#6580A8"/>
<path d="M10.5683 12.2717C8.89404 12.2717 7.5332 10.9087 7.5332 9.23012C7.5332 7.55585 8.89624 6.19287 10.5683 6.19287C12.2447 6.19287 13.6099 7.55591 13.6099 9.23012C13.6099 10.9065 12.2447 12.2717 10.5683 12.2717ZM10.5683 7.29401C9.49937 7.29401 8.6322 8.16332 8.6322 9.23227C8.6322 10.3034 9.50151 11.1749 10.5683 11.1749C11.6394 11.1749 12.5109 10.3034 12.5109 9.23227C12.5109 8.16332 11.6395 7.29401 10.5683 7.29401Z" fill="#6580A8"/>
<path d="M13.9041 15.6037H7.237C6.93435 15.6037 6.6875 15.359 6.6875 15.0542C6.6875 12.9142 8.42832 11.1733 10.5683 11.1733C12.7105 11.1733 14.4535 12.9142 14.4535 15.0542C14.4535 15.3568 14.2067 15.6037 13.9041 15.6037ZM7.84035 14.5047H13.2989C13.0434 13.234 11.9144 12.2723 10.5664 12.2723C9.22053 12.2723 8.09576 13.2318 7.83821 14.5047H7.84035Z" fill="#6580A8"/>
<path d="M32.8278 22.7145C32.7999 22.8862 32.7827 23.0558 32.7441 23.2232C32.7011 23.4057 32.6475 23.5838 32.596 23.7641C35.0408 24.7086 36.6507 26.6082 36.6507 28.7204C36.6507 30.2336 35.8608 31.6503 34.4269 32.7107L34.1371 32.9253L34.2251 33.2752C34.5106 34.372 35.5152 34.9344 36.2106 35.3122C35.1095 35.4603 32.714 35.2156 31.512 33.7925L31.3123 33.5521L31.0033 33.6122C30.5224 33.7088 29.9622 33.756 29.2882 33.756C25.9848 33.756 23.3036 32.4767 22.2585 30.5642C21.8292 30.5556 21.4256 30.5277 21.0479 30.4805C22.0331 33.0884 25.2013 34.8163 29.2882 34.8163C29.8999 34.8163 30.4322 34.7799 30.913 34.7069C32.0829 35.8917 33.9954 36.4069 35.5409 36.4069C35.6439 36.4069 35.7448 36.4048 35.8414 36.4005C36.7407 36.3576 37.3267 36.1515 37.5843 35.7823C37.6981 35.6192 37.7389 35.4217 37.6938 35.2328C37.6058 34.8529 37.2559 34.6661 36.7729 34.4085C36.2986 34.151 35.674 33.814 35.3821 33.3095C36.8674 32.0817 37.711 30.4311 37.711 28.7182C37.711 26.1145 35.762 23.7898 32.8256 22.71L32.8278 22.7145Z" fill="#6580A8"/>
<path d="M22.6106 13.0576C17.5213 13.0576 13.2949 16.7517 13.2949 21.4012C13.2949 23.6314 14.2909 25.6577 15.8728 27.1517L15.8235 27.3943C15.465 28.4396 14.5892 29.0321 14.0698 29.2209C13.7671 29.3261 13.5139 29.4935 13.3765 29.779C13.2391 30.0624 13.3228 30.4552 13.5289 30.6612C14.0161 31.1485 14.645 31.1013 15.1066 31.1056C16.8388 31.1249 18.878 30.2191 20.1143 29.6009L20.1294 29.5944L20.5522 29.3519L20.3912 29.3004L20.4084 29.3068C21.0974 29.4635 21.8186 29.515 22.5291 29.515C27.0024 29.515 30.8552 26.8426 31.7052 22.9985V22.9963C31.819 22.4833 31.8791 21.951 31.8791 21.4058C31.8791 16.763 27.6977 13.0622 22.6085 13.0622L22.6106 13.0576ZM22.6106 14.1201C27.1869 14.1201 30.8168 17.3978 30.8168 21.401C30.8168 21.8711 30.7653 22.3261 30.6687 22.764C29.9454 26.046 26.584 28.4503 22.5312 28.4503C21.8765 28.4503 21.2325 28.4009 20.653 28.2678L20.4212 28.1991L19.6334 28.652C18.4593 29.238 16.4373 30.0601 15.1172 30.0429C14.9369 30.0429 14.9197 30.0086 14.7931 29.9936C15.5486 29.6244 16.4179 28.9547 16.8343 27.7247L16.8429 27.6968L17.034 26.8017L16.8 26.5957C15.2803 25.267 14.3552 23.4253 14.3552 21.4034C14.3552 17.4023 18.0321 14.1225 22.6086 14.1225L22.6106 14.1201Z" fill="#6580A8"/>
</svg>
