<svg width="100" height="100" viewBox="0 0 100 100" fill="none" xmlns="http://www.w3.org/2000/svg">
<g clip-path="url(#clip0_750_21)">
<path d="M25.0293 43.7134C18.0984 43.7134 12.4951 49.3167 12.4951 56.228C12.4951 63.1394 18.0984 68.7427 25.0098 68.7427C31.9211 68.7427 37.5244 63.1394 37.5244 56.228C37.5439 49.3167 31.9406 43.7134 25.0293 43.7134ZM25.0293 65.1894C20.0898 65.1894 16.0679 61.187 16.0679 56.228C16.0679 51.269 20.0703 47.2667 25.0293 47.2667C29.9883 47.2667 33.9711 51.2885 33.9711 56.228C33.9711 61.1675 29.9688 65.1894 25.0293 65.1894Z" fill="black"/>
<path d="M25.0679 62.4365C28.5075 62.4365 31.2959 59.6482 31.2959 56.2085C31.2959 52.7689 28.5075 49.9805 25.0679 49.9805C21.6282 49.9805 18.8398 52.7689 18.8398 56.2085C18.8398 59.6482 21.6282 62.4365 25.0679 62.4365Z" fill="black"/>
<path d="M75.0098 43.7134C68.0984 43.7134 62.4951 49.3167 62.4951 56.228C62.4951 63.1394 68.0984 68.7427 75.0098 68.7427C81.9211 68.7427 87.5244 63.1394 87.5244 56.228C87.5244 49.3167 81.9211 43.7134 75.0098 43.7134ZM75.0098 65.1894C70.0703 65.1894 66.0484 61.187 66.0484 56.228C66.0484 51.269 70.0508 47.2667 75.0098 47.2667C79.9688 47.2667 83.9516 51.2885 83.9516 56.228C83.9516 61.1675 79.9492 65.1894 75.0098 65.1894Z" fill="black"/>
<path d="M75.0483 62.4365C78.488 62.4365 81.2764 59.6482 81.2764 56.2085C81.2764 52.7689 78.488 49.9805 75.0483 49.9805C71.6087 49.9805 68.8203 52.7689 68.8203 56.2085C68.8203 59.6482 71.6087 62.4365 75.0483 62.4365Z" fill="black"/>
<path d="M92.6201 38.5006L99.9805 31.1987H85.0644C76.7083 24.4045 62.827 18.7427 49.961 18.7427C37.0754 18.7427 23.3112 24.4045 14.9551 31.1987H0L7.36041 38.5006C2.8114 43.0301 0 49.2971 0 56.228C0 70.0508 11.2066 81.2573 25.0293 81.2573C31.3745 81.2573 37.173 78.895 41.5853 74.9902L50.0586 81.2183L58.4342 75.1269L58.3366 74.8926C62.7684 78.8364 68.5865 81.2378 74.9902 81.2378C88.813 81.2378 100.02 70.0312 100.02 56.2085C100 49.2971 97.1691 43.0301 92.6201 38.5006ZM71.8469 31.394C59.9961 32.8778 50.7029 42.6396 50 54.7247C49.2776 42.6201 39.9649 32.8387 28.075 31.394C34.0492 27.0988 41.6634 24.9902 49.961 24.9902C58.2585 24.9902 65.8727 27.0988 71.8469 31.394ZM25.0293 75.0098C14.6427 75.0098 6.24756 66.5951 6.24756 56.228C6.24756 45.861 14.6622 37.4463 25.0293 37.4463C35.3963 37.4463 43.811 45.861 43.811 56.228C43.7915 66.5951 35.3963 75.0098 25.0293 75.0098ZM75.0098 75.0098C64.6427 75.0098 56.228 66.5951 56.228 56.228C56.228 45.861 64.6427 37.4463 75.0098 37.4463C85.3768 37.4463 93.7915 45.861 93.7915 56.228C93.772 66.5951 85.3768 75.0098 75.0098 75.0098Z" fill="black"/>
</g>
<defs>
<clipPath id="clip0_750_21">
<rect width="100" height="100" fill="white"/>
</clipPath>
</defs>
</svg>
