<svg width="10" height="10" viewBox="0 0 10 10" fill="none" xmlns="http://www.w3.org/2000/svg">
<path d="M8.85146 3.59096L6.29645 3.21896L5.15346 0.903961C4.98546 0.561961 4.42446 0.561961 4.25746 0.903961L3.11446 3.21896L0.560456 3.59096C0.372456 3.61796 0.215456 3.74996 0.156456 3.93096C0.0974555 4.11196 0.146455 4.30996 0.282455 4.44296L2.13046 6.24396L1.69546 8.78996C1.66346 8.97796 1.74046 9.16696 1.89446 9.27796C2.04946 9.38996 2.25345 9.40596 2.42145 9.31596L4.70646 8.11496L6.99146 9.31596C7.06446 9.35496 7.14446 9.37396 7.22446 9.37396C7.32846 9.37396 7.43146 9.34196 7.51846 9.27796C7.67246 9.16696 7.74946 8.97696 7.71746 8.78996L7.28146 6.24496L9.13046 4.44396C9.26646 4.31096 9.31546 4.11196 9.25646 3.93096C9.19746 3.74996 9.04046 3.61896 8.85146 3.59096Z" fill="black"/>
</svg>
