<svg width="10" height="10" viewBox="0 0 10 10" fill="none" xmlns="http://www.w3.org/2000/svg">
<path d="M8.99792 3.58996L6.44392 3.21896L5.30092 0.903961C5.13292 0.561961 4.57192 0.561961 4.40492 0.903961L3.26191 3.21896L0.707916 3.58996C0.519916 3.61696 0.362917 3.74896 0.303917 3.92996C0.244917 4.11096 0.293916 4.30996 0.429916 4.44296L2.27892 6.24596L1.84191 8.78896C1.80991 8.97696 1.88692 9.16696 2.04092 9.27796C2.19492 9.38996 2.39992 9.40596 2.56792 9.31596L4.85292 8.11496L7.13792 9.31596C7.21092 9.35496 7.29092 9.37396 7.37092 9.37396C7.47492 9.37396 7.57792 9.34196 7.66492 9.27796C7.81892 9.16696 7.89592 8.97596 7.86392 8.78896L7.42692 6.24596L9.27592 4.44296C9.41192 4.30996 9.46092 4.11096 9.40192 3.92996C9.34192 3.74996 9.18592 3.61796 8.99792 3.58996Z" fill="black"/>
</svg>
