<svg width="10" height="10" viewBox="0 0 10 10" fill="none" xmlns="http://www.w3.org/2000/svg">
<path d="M9.1464 3.59096L6.5914 3.21896L5.4474 0.903961C5.2794 0.561961 4.7184 0.561961 4.5514 0.903961L3.4084 3.21896L0.8544 3.59096C0.6664 3.61796 0.509401 3.74996 0.450401 3.93096C0.391401 4.11196 0.4404 4.30996 0.5764 4.44296L2.4244 6.24396L1.9904 8.78996C1.9584 8.97796 2.0354 9.16696 2.1894 9.27796C2.3444 9.38996 2.5484 9.40596 2.7164 9.31596L5.0004 8.11496L7.2844 9.31596C7.3574 9.35496 7.4364 9.37396 7.5164 9.37396C7.6204 9.37396 7.7234 9.34196 7.8104 9.27796C7.9634 9.16696 8.0414 8.97696 8.0094 8.78996L7.5734 6.24496L9.4224 4.44396C9.5594 4.31096 9.6084 4.11196 9.5494 3.93096C9.4904 3.74996 9.3344 3.61896 9.1464 3.59096Z" fill="black"/>
</svg>
