<svg width="10" height="10" viewBox="0 0 10 10" fill="none" xmlns="http://www.w3.org/2000/svg">
<path d="M9.84387 3.93194C9.78487 3.75094 9.62887 3.61894 9.44087 3.59194L6.88587 3.21994L5.74287 0.904938C5.57487 0.562937 5.01387 0.562937 4.84687 0.904938L3.70386 3.21994L1.14786 3.59194C0.959864 3.61894 0.802865 3.75094 0.744865 3.93194C0.686865 4.11294 0.734867 4.31194 0.871867 4.44494L2.72087 6.24594L2.28287 8.78994C2.25087 8.97794 2.32786 9.16794 2.48186 9.27894C2.56886 9.34194 2.67187 9.37494 2.77587 9.37494C2.85587 9.37494 2.93487 9.35594 3.00787 9.31694L5.29386 8.11494L7.57886 9.31694C7.74686 9.40694 7.95087 9.39094 8.10487 9.27894C8.25887 9.16794 8.33587 8.97694 8.30387 8.78994L7.86587 6.24594L9.71487 4.44494C9.85387 4.31194 9.90187 4.11294 9.84387 3.93194Z" fill="black"/>
</svg>
