<svg width="10" height="10" viewBox="0 0 10 10" fill="none" xmlns="http://www.w3.org/2000/svg">
<path d="M9.29286 3.591L6.73686 3.219L5.59386 0.903999C5.50986 0.732999 5.33586 0.625 5.14586 0.625C4.95586 0.625 4.78187 0.732999 4.69787 0.903999L3.55386 3.219L0.999863 3.591C0.811863 3.618 0.654863 3.75 0.596863 3.931C0.537863 4.112 0.586862 4.31 0.723862 4.443L2.57186 6.244L2.13486 8.789C2.10286 8.977 2.17986 9.166 2.33386 9.277C2.42086 9.34 2.52386 9.373 2.62786 9.373C2.70786 9.373 2.78686 9.354 2.85986 9.315L5.14486 8.114L7.42886 9.315C7.59686 9.405 7.80086 9.389 7.95486 9.277C8.10786 9.166 8.18586 8.976 8.15386 8.789L7.71786 6.244L9.56686 4.443C9.70386 4.31 9.75286 4.111 9.69386 3.93C9.63486 3.749 9.48086 3.619 9.29286 3.591Z" fill="black"/>
</svg>
