<svg width="18" height="22" viewBox="0 0 18 22" fill="none" xmlns="http://www.w3.org/2000/svg">
<path d="M1.5 8.5C1.5 12.6421 4.85786 16 9 16C13.1421 16 16.5 12.6421 16.5 8.5C16.5 4.35786 13.1421 1 9 1C4.85786 1 1.5 4.35786 1.5 8.5Z" stroke="#1FA67A" stroke-width="1.5" stroke-linecap="round" stroke-linejoin="round"/>
<path d="M6 9.1667C6 9.1667 6.75 9.1667 7.5 10.5C7.5 10.5 9.8824 7.16667 12 6.5" stroke="#1FA67A" stroke-width="1.5" stroke-linecap="round" stroke-linejoin="round"/>
<path d="M13.8825 14L14.5527 17.2099C14.9833 19.2723 15.1986 20.3035 14.7563 20.7923C14.3141 21.281 13.546 20.8606 12.0099 20.0198L9.7364 18.7753C9.3734 18.5766 9.1919 18.4773 9 18.4773C8.8081 18.4773 8.6266 18.5766 8.2636 18.7753L5.99008 20.0198C4.45397 20.8606 3.68592 21.281 3.24365 20.7923C2.80139 20.3035 3.01669 19.2723 3.44731 17.2099L4.11752 14" stroke="#1FA67A" stroke-width="1.5" stroke-linejoin="round"/>
</svg>
