<svg width="47" height="22" viewBox="0 0 47 22" fill="none" xmlns="http://www.w3.org/2000/svg">
<path d="M21.9831 9.45H24.2931V9.945H22.5231V10.98H24.2331V11.46H22.5231V12.505H24.3331V13H21.9831V9.45ZM24.9 10.35H25.385L25.4 10.795C25.535 10.44 25.845 10.29 26.205 10.29C26.8 10.29 27.105 10.715 27.105 11.295V13H26.575V11.46C26.575 10.99 26.43 10.735 26.06 10.735C25.675 10.735 25.43 10.99 25.43 11.46V13H24.9V10.35ZM28.7207 12.865C28.0357 12.865 27.5557 12.345 27.5557 11.59C27.5557 10.82 28.0307 10.29 28.7157 10.29C29.0707 10.29 29.3707 10.47 29.4957 10.765V10.35H30.0107V12.72C30.0107 13.42 29.5057 13.81 28.7857 13.81C28.2057 13.81 27.7657 13.51 27.6357 13.045L28.1807 13.01C28.2757 13.235 28.4907 13.37 28.7907 13.37C29.2207 13.37 29.4757 13.18 29.4757 12.81V12.425C29.3457 12.69 29.0507 12.865 28.7207 12.865ZM28.1057 11.585C28.1057 12.105 28.3807 12.43 28.8057 12.43C29.2157 12.43 29.4857 12.105 29.4907 11.585C29.5007 11.07 29.2307 10.745 28.8057 10.745C28.3757 10.745 28.1057 11.07 28.1057 11.585ZM30.6875 9.45H31.2175V12.385C31.2175 12.505 31.2825 12.565 31.3975 12.565H31.6125V13H31.2825C30.9275 13 30.6875 12.77 30.6875 12.41V9.45ZM32.1018 10.35H32.6318V13H32.1018V10.35ZM32.0918 9.96V9.455H32.6468V9.96H32.0918ZM34.8511 11.185C34.7961 10.9 34.5311 10.73 34.2561 10.73C33.9861 10.73 33.7661 10.87 33.7661 11.105C33.7711 11.345 34.0761 11.44 34.3561 11.495C35.0161 11.615 35.4361 11.79 35.4361 12.31C35.4361 12.83 34.9161 13.06 34.3511 13.06C33.6761 13.06 33.1911 12.72 33.1511 12.165L33.6961 12.13C33.7511 12.43 33.9811 12.62 34.3461 12.62C34.5861 12.62 34.8861 12.535 34.8861 12.285C34.8811 12 34.5461 11.965 34.2611 11.9C33.6961 11.78 33.2161 11.625 33.2161 11.12C33.2161 10.605 33.6361 10.29 34.2961 10.29C34.8711 10.29 35.3111 10.625 35.3961 11.155L34.8511 11.185ZM35.8678 9.45H36.3978V10.71C36.5528 10.415 36.8528 10.29 37.1778 10.29C37.7278 10.29 38.0728 10.685 38.0728 11.295V13H37.5428V11.485C37.5428 11.005 37.3828 10.76 37.0278 10.76C36.6428 10.76 36.3978 11.015 36.3978 11.485V13H35.8678V9.45Z" fill="black"/>
<path fill-rule="evenodd" clip-rule="evenodd" d="M13.3414 12.6669H12.0012L18 16V15.2553L13.3414 12.6669ZM9.8986 9.99889H18V11.996H9.8986V16H8.1012V11.996H0V9.99889H8.1012V6H9.8986V9.99889ZM7.4976 15.9949H2.014L7.4976 12.9442V15.9949ZM5.982 12.6669H7.3352L1.3532 15.9949H0L5.982 12.6669ZM10.5024 15.9949H15.986L10.5024 12.9442V15.9949ZM18 14.8833V12.6669H14.011L18 14.8833ZM0 12.6669H3.989L0 14.8833V12.6669ZM18 9.32822H14.011L18 7.11178V9.32822ZM12.018 9.32822H10.6648L16.6468 6H18L12.018 9.32822ZM3.989 9.32822H0V7.11178L3.989 9.32822ZM5.9898 9.32822L0 6V6.74467L4.6494 9.32822H5.9898ZM10.5024 6H15.986L10.5024 9.05089V6ZM7.4976 6V9.05089L2.014 6H7.4976Z" fill="#C80F2F"/>
<path fill-rule="evenodd" clip-rule="evenodd" d="M7.4976 15.9949H2.014L7.4976 12.9442V15.9949ZM10.5024 15.9949H15.986L10.5024 12.9442V15.9949ZM18 14.8833V12.6669H14.011L18 14.8833ZM0 12.6669H3.989L0 14.8833V12.6669ZM18 9.32822H14.011L18 7.11178V9.32822ZM3.989 9.32822H0V7.11178L3.989 9.32822ZM10.5024 6H15.986L10.5024 9.05089V6ZM7.4976 6V9.05089L2.014 6H7.4976Z" fill="#012169"/>
</svg>
