<svg width="85" height="84" viewBox="0 0 85 84" fill="none" xmlns="http://www.w3.org/2000/svg">
<path d="M30.226 22.1095C29.8354 23.297 30.1635 24.5626 31.0541 25.4376L34.2729 28.6407L33.5229 33.0157C33.3198 34.2345 33.8042 35.4532 34.8198 36.1876C35.8198 36.922 37.1323 37.0157 38.2417 36.4376L42.2729 34.3751L46.1948 36.4376C46.6792 36.6876 47.1948 36.8126 47.7104 36.8126C48.3823 36.8126 49.0385 36.6095 49.6166 36.1876C50.6166 35.4532 51.1166 34.2345 50.9135 33.0157L50.1948 28.5469L53.3666 25.4531C54.2573 24.5781 54.5698 23.3125 54.1948 22.125C53.8042 20.9375 52.8042 20.0938 51.5698 19.9219L47.0854 19.2188L45.1166 15.2344C44.5697 14.125 43.4447 13.4219 42.2104 13.4219C40.9761 13.4219 39.851 14.1094 39.3042 15.2344L37.2573 19.2813L32.8667 19.9219C31.6323 20.0938 30.6323 20.9531 30.2417 22.125L30.226 22.1095ZM33.2885 23.0001L37.6791 22.3595C38.7416 22.2032 39.6479 21.547 40.1166 20.5783L42.1791 16.5314C42.1791 16.5314 42.2728 16.5626 42.2885 16.5939L44.2573 20.5783C44.726 21.5314 45.6479 22.2033 46.6948 22.3595L51.0854 23.0001L51.1479 23.2032L47.976 26.297C47.2103 27.047 46.8666 28.1095 47.0385 29.172L47.7885 33.547L47.6166 33.672L43.6947 31.6095C42.7416 31.1095 41.6166 31.1095 40.6791 31.6095L36.7572 33.672L36.5853 33.547L37.3353 29.172C37.5228 28.1251 37.1634 27.047 36.3978 26.297L33.2259 23.2032L33.2885 23.0001Z" fill="#262626"/>
<path d="M8.00727 39.6714L7.46039 42.8276C7.24164 44.0464 7.74164 45.2651 8.74159 45.9995C9.30409 46.4057 9.97599 46.6245 10.6478 46.6245C11.1634 46.6245 11.679 46.4995 12.1634 46.2495L15.1165 44.7495L17.9603 46.2495C19.0697 46.8276 20.3665 46.7339 21.3822 45.9995C22.3822 45.2651 22.8822 44.0464 22.6791 42.8276L22.1635 39.562L24.4604 37.3276C25.351 36.4526 25.6635 35.187 25.2729 33.9995C24.8823 32.812 23.8823 31.9683 22.6635 31.7964L19.3979 31.2651L17.976 28.3901C17.4291 27.2807 16.3041 26.5776 15.0698 26.5776C13.8355 26.5776 12.7104 27.2651 12.1636 28.3901L10.6636 31.3276L7.49167 31.7964C6.25727 31.9683 5.25727 32.8276 4.88227 33.9995C4.50727 35.1714 4.81977 36.4526 5.71039 37.3276L8.03849 39.6714H8.00727ZM7.92914 34.8902L11.101 34.4214C12.1635 34.2652 13.0698 33.6089 13.5385 32.6558L15.0697 29.7183C15.0697 29.7183 15.1635 29.7496 15.1791 29.7808L16.601 32.6558C17.0698 33.609 17.9916 34.2808 19.0385 34.437L22.2104 34.9058L22.2729 35.1089L19.976 37.3433C19.2104 38.0933 18.8666 39.1558 19.0385 40.2183L19.5854 43.3745L19.4135 43.4995L16.5697 41.9995C16.101 41.7495 15.5853 41.6245 15.0541 41.6245C14.5229 41.6245 14.0229 41.7495 13.5541 41.9995L10.7103 43.4995L10.5384 43.3745L11.0853 40.2183C11.2728 39.1714 10.9134 38.0933 10.1478 37.3433L7.85092 35.1089L7.91342 34.9058L7.92914 34.8902Z" fill="#262626"/>
<path d="M62.2732 39.6714L61.7263 42.8276C61.5232 44.0464 62.0076 45.2651 63.0232 45.9995C64.0232 46.7339 65.3358 46.8276 66.4295 46.2495L69.3825 44.7495L72.2263 46.2495C72.7107 46.4995 73.2263 46.6245 73.742 46.6245C74.4138 46.6245 75.07 46.4214 75.6481 45.9995C76.6481 45.2651 77.1482 44.0464 76.9294 42.8276L76.4137 39.562L78.7106 37.3276C79.6013 36.4526 79.9137 35.187 79.5387 33.9995C79.1638 32.812 78.1481 31.9683 76.9137 31.7964L73.6481 31.2651L72.2262 28.3901C71.6794 27.2807 70.5543 26.5776 69.32 26.5776C68.0857 26.5776 66.9606 27.2651 66.4138 28.3901L64.8982 31.3276L61.7263 31.7964C60.4919 31.9683 59.492 32.8276 59.117 33.9995C58.7263 35.187 59.0545 36.4526 59.9295 37.3276L62.2575 39.6714H62.2732ZM62.1795 34.8902L65.3514 34.4214C66.4139 34.2652 67.3202 33.6089 67.7889 32.6558L69.2108 29.7808H69.4139L70.8358 32.6558C71.3045 33.609 72.2264 34.2808 73.2733 34.437L76.4452 34.9058L76.5077 35.1089L74.2108 37.3433C73.4452 38.0933 73.1014 39.1558 73.2733 40.2183L73.8202 43.3745L73.6483 43.4995L70.8045 41.9995C70.3357 41.7495 69.8201 41.6245 69.2889 41.6245C68.7577 41.6245 68.2577 41.7495 67.7889 41.9995L64.9451 43.4995L64.7732 43.3745L65.3201 40.2026C65.5076 39.1557 65.1482 38.0776 64.3826 37.3276L62.0857 35.0932L62.1482 34.8901L62.1795 34.8902Z" fill="#262626"/>
<path d="M82.7571 53.8745C81.1009 52.1089 78.554 51.5465 76.2883 52.4215C73.6789 53.4215 70.7102 55.1558 67.4914 57.5776C66.1008 58.6245 64.3352 59.3901 62.3976 59.9526C62.7569 58.0932 62.3507 55.6246 60.5695 54.2652C59.882 53.7495 59.0695 53.4527 58.1164 53.3745C53.2883 52.9527 46.3194 50.9839 38.4754 47.8433C28.1944 43.7339 16.3974 53.4058 15.8974 53.8277C15.8036 53.9059 15.7411 54.0152 15.6786 54.109L14.8192 52.6246C14.3817 51.8746 13.4286 51.6246 12.6786 52.0465L0.787637 58.9215C0.428257 59.1246 0.162637 59.4683 0.0532571 59.8746C-0.0561229 60.2808 0.0063816 60.7027 0.209507 61.0621L12.6475 82.5931C12.9444 83.0931 13.46 83.3743 14.0069 83.3743C14.2725 83.3743 14.5382 83.3118 14.7882 83.1712L26.6792 76.2962C27.0385 76.0931 27.3042 75.7493 27.4135 75.3431C27.5229 74.9368 27.4604 74.515 27.2573 74.1556L26.2885 72.4681C30.1166 70.9369 34.7573 71.7025 40.4605 72.6556C44.4917 73.3275 48.898 74.0775 53.7265 74.0775C55.4609 74.0775 57.2421 73.9837 59.0859 73.7494C69.3199 72.4838 77.4449 66.8432 82.4769 62.3114C83.6957 61.1864 84.3988 59.6083 84.3988 57.952C84.3988 56.4364 83.8207 54.9832 82.7738 53.8895L82.7571 53.8745ZM14.5691 79.6556L3.69407 60.8275L12.8816 55.515L22.6941 72.515C22.6941 72.515 22.6941 72.5463 22.7097 72.5619L22.7409 72.5932L23.7409 74.3276L14.5534 79.6401L14.5691 79.6556ZM80.3661 59.9835C76.538 63.4366 68.6321 69.3898 58.6941 70.6246C52.1941 71.4371 46.2251 70.4371 40.9751 69.5465C34.8189 68.5153 29.4441 67.6246 24.7091 69.7027L17.0997 56.5147C17.3965 56.4834 17.6778 56.3897 17.9122 56.1866C18.0215 56.0928 28.7712 47.296 37.3182 50.7178C45.4276 53.9678 52.7242 55.999 57.8492 56.4522C57.9898 56.4522 58.3804 56.4991 58.6929 56.7334C59.2867 57.1866 59.5679 58.374 59.3335 59.4209C59.3335 59.4522 59.3335 59.4678 59.3179 59.4991C59.1617 60.0772 58.7085 60.5772 58.1148 60.8585C51.1773 61.8741 43.9118 61.0928 43.8028 61.0928C42.9591 61.0147 42.1778 61.6085 42.084 62.4678C41.9902 63.3272 42.5996 64.0928 43.459 64.1866C43.8496 64.2335 48.8965 64.7648 54.756 64.3429C59.881 63.9679 65.6 62.8741 69.35 60.0617C73.0688 57.2648 75.7719 55.9367 77.3969 55.3273C78.475 54.9054 79.6781 55.171 80.475 56.0148C80.975 56.5304 81.2406 57.2179 81.2406 57.9367C81.2406 58.7179 80.9125 59.4523 80.35 59.9836L80.3661 59.9835Z" fill="#262626"/>
<path d="M42.1953 7.8125C43.0547 7.8125 43.7578 7.10938 43.7578 6.25V1.5625C43.7578 0.70312 43.0547 0 42.1953 0C41.3359 0 40.6328 0.70312 40.6328 1.5625V6.25C40.6328 7.10938 41.3359 7.8125 42.1953 7.8125Z" fill="#262626"/>
<path d="M31.1483 11.4687C31.4608 11.7812 31.8515 11.9218 32.2577 11.9218C32.664 11.9218 33.0546 11.7656 33.3671 11.4687C33.9765 10.8594 33.9765 9.87493 33.3671 9.26563L30.0546 5.95313C29.4453 5.34375 28.4608 5.34375 27.8515 5.95313C27.2422 6.56251 27.2422 7.54693 27.8515 8.15623L31.164 11.4687H31.1483Z" fill="#262626"/>
<path d="M52.1328 11.9213C52.539 11.9213 52.9296 11.7651 53.2422 11.4682L56.5547 8.15571C57.164 7.54633 57.164 6.56191 56.5547 5.95261C55.9453 5.34331 54.9609 5.34323 54.3516 5.95261L51.0391 9.26511C50.4297 9.87449 50.4297 10.8589 51.0391 11.4682C51.3516 11.7807 51.7422 11.9213 52.1485 11.9213H52.1328Z" fill="#262626"/>
</svg>
