<svg width="47" height="22" viewBox="0 0 47 22" fill="none" xmlns="http://www.w3.org/2000/svg">
<rect x="0.05" y="5.05" width="17.9" height="11.888" fill="white" stroke="#262626" stroke-width="0.1"/>
<circle cx="9.00039" cy="11.0121" r="3.55" fill="#AF242A" stroke="#262626" stroke-width="0.1"/>
<path d="M23.455 9.14H26.73V13.325H26.335V9.52H23.84V13.345H23.455V9.14ZM23.71 10.875H26.5V11.245H23.71V10.875ZM23.705 12.645H26.51V13.02H23.705V12.645ZM27.82 9.855H32.185V10.235H27.82V9.855ZM28.82 12.085H31.15V12.465H28.82V12.085ZM29.795 8.805H30.19V13.4H29.795V8.805ZM29.68 9.98L30.015 10.095C29.57 11.155 28.785 12.11 27.92 12.615C27.86 12.52 27.735 12.38 27.65 12.305C28.485 11.87 29.28 10.94 29.68 9.98ZM30.315 9.995C30.71 10.945 31.495 11.855 32.36 12.27C32.265 12.35 32.135 12.5 32.075 12.605C31.19 12.115 30.42 11.16 29.98 10.11L30.315 9.995ZM34.82 11.6H36.935V13.38H36.57V11.945H35.175V13.4H34.82V11.6ZM34.685 9.83H36.8V11.055H36.435V10.16H34.685V9.83ZM35.405 9.115L35.775 9.145C35.685 9.76 35.545 10.58 35.44 11.055H35.07C35.185 10.56 35.325 9.72 35.405 9.115ZM34.605 8.99H37.08V9.315H34.605V8.99ZM34.455 10.885H37.24V11.22H34.455V10.885ZM34.98 12.83H36.77V13.17H34.98V12.83ZM32.85 10.345H34.26V10.64H32.85V10.345ZM32.88 8.98H34.255V9.28H32.88V8.98ZM32.85 11.025H34.26V11.325H32.85V11.025ZM32.615 9.65H34.435V9.96H32.615V9.65ZM33.03 11.71H34.28V13.17H33.03V12.86H33.95V12.025H33.03V11.71ZM32.845 11.71H33.17V13.4H32.845V11.71Z" fill="black"/>
</svg>
