<svg width="87" height="93" viewBox="0 0 87 93" fill="none" xmlns="http://www.w3.org/2000/svg">
<path d="M40.1791 30.8931C41.3777 30.8931 42.3477 31.8682 42.3477 33.0733C42.3477 34.2746 41.3778 35.2535 40.1791 35.2535H13.9303C11.2932 35.2535 8.89227 36.3399 7.1551 38.0901C5.41424 39.8402 4.33732 42.2503 4.33732 44.9014C4.33732 47.5526 5.41792 49.9663 7.1551 51.7128C8.89595 53.4629 11.2932 54.5493 13.9303 54.5493H70.4293C74.265 54.5493 77.7466 56.1252 80.2694 58.6613C82.7921 61.1975 84.3595 64.7014 84.3595 68.554C84.3595 72.4065 82.792 75.9104 80.2694 78.4467C77.7467 80.9829 74.2614 82.5587 70.4293 82.5587H44.5496C44.096 85.169 42.8457 87.5086 41.057 89.3033C38.7851 91.5873 35.6427 93 32.1759 93C28.709 93 25.5704 91.5873 23.2949 89.3033C21.023 87.0193 19.6178 83.8601 19.6178 80.3748C19.6178 76.8895 21.023 73.734 23.2949 71.4463C25.5668 69.1623 28.7091 67.7496 32.1759 67.7496C35.6428 67.7496 38.7814 69.1623 41.057 71.4463C42.8457 73.2446 44.0961 75.5806 44.5496 78.191H70.4293C73.0663 78.191 75.4673 77.1046 77.2044 75.3544C78.9453 73.6043 80.0259 71.1942 80.0259 68.5431C80.0259 65.8919 78.9453 63.4782 77.2044 61.7317C75.4636 59.9816 73.0663 58.8952 70.4293 58.8952H13.9303C10.0983 58.8952 6.61295 57.3193 4.09014 54.7832C1.56732 52.2471 0 48.7431 0 44.8905C0 41.038 1.56751 37.5341 4.09014 34.9978C6.61277 32.4615 10.0982 30.8858 13.9303 30.8858H40.1791V30.8931ZM37.9883 74.535C36.502 73.0407 34.444 72.1137 32.1758 72.1137C29.904 72.1137 27.8497 73.0407 26.3633 74.535C24.877 76.0292 23.955 78.0982 23.955 80.3785C23.955 82.6625 24.877 84.7278 26.3633 86.2221C27.8497 87.7163 29.9077 88.6433 32.1758 88.6433C34.4477 88.6433 36.502 87.7163 37.9883 86.2221C39.4746 84.7278 40.3967 82.6588 40.3967 80.3785C40.3967 78.0945 39.4747 76.0292 37.9883 74.535ZM68.1866 0C73.3832 0 78.0815 2.11722 81.4899 5.53951C84.8941 8.96189 87 13.693 87 18.9139C87 24.9429 84.8609 29.9675 81.5157 34.2162C78.2775 38.3355 73.9144 41.6838 69.3038 44.498C68.5773 44.9393 67.7032 44.9022 67.032 44.4795C62.4328 41.6653 58.0882 38.3244 54.8541 34.2166C51.5089 29.9637 49.3698 24.9396 49.3698 18.9143C49.3698 13.69 51.4758 8.96661 54.8799 5.53995C58.2841 2.11757 62.9864 0.000445265 68.1832 0.000445265L68.1866 0ZM78.4252 8.62445C75.8066 5.9919 72.1885 4.3604 68.1866 4.3604C64.1886 4.3604 60.5706 5.9881 57.948 8.62445C55.3295 11.257 53.7066 14.8945 53.7066 18.9177C53.7066 23.8714 55.4733 28.0131 58.2431 31.5318C60.8617 34.8614 64.3839 37.672 68.1861 40.0969C71.9849 37.672 75.5071 34.8614 78.1292 31.5318C80.8953 28.0168 82.6656 23.8714 82.6656 18.9177C82.6656 14.8984 81.0475 11.261 78.4252 8.62445ZM68.1866 8.28703C71.1039 8.28703 73.7483 9.47725 75.6625 11.3979C77.573 13.3185 78.7568 15.9771 78.7568 18.9137C78.7568 21.8504 77.573 24.5052 75.6625 26.4296C73.7521 28.3502 71.1077 29.5405 68.1866 29.5405C65.2693 29.5405 62.6249 28.3502 60.7107 26.4296C58.8002 24.5053 57.6164 21.8467 57.6164 18.9137C57.6164 15.9808 58.8002 13.3223 60.7107 11.3979C62.6248 9.47725 65.2692 8.28703 68.1866 8.28703ZM72.594 14.4828C71.4654 13.3482 69.9089 12.6474 68.1866 12.6474C66.4642 12.6474 64.9078 13.3482 63.7755 14.4828C62.647 15.6174 61.9499 17.1822 61.9499 18.9137C61.9499 20.6453 62.647 22.2101 63.7755 23.3484C64.9041 24.483 66.4642 25.1838 68.1866 25.1838C69.9089 25.1838 71.4654 24.483 72.594 23.3484C73.7225 22.2138 74.4196 20.6453 74.4196 18.9137C74.4196 17.1822 73.7226 15.6174 72.594 14.4828Z" fill="#262626"/>
</svg>
