<svg width="86" height="88" viewBox="0 0 86 88" fill="none" xmlns="http://www.w3.org/2000/svg">
<path d="M61.7655 68.7302C64.4608 73.1521 63.0624 78.9212 58.6405 81.6172L50.8788 86.3399V86.336C49.4179 87.2266 47.7421 87.6993 46.0311 87.6993C44.4803 87.6953 42.953 87.3203 41.578 86.6016C29.359 80.1993 19.098 70.6136 11.871 58.8636C4.67183 47.0156 0.871027 33.4226 0.875027 19.5586C0.867215 16.2969 2.57813 13.2695 5.37503 11.5898L13.1406 6.86706C17.5625 4.17566 23.3286 5.57406 26.0236 9.99206L30.8947 17.9999C33.59 22.4218 32.1916 28.1879 27.7697 30.8829L23.7463 33.3282V33.3321C22.5471 34.0508 21.9768 35.4883 22.3557 36.836C25.0276 45.4688 29.7932 53.305 36.2307 59.648C37.2502 60.6245 38.801 60.7847 39.9963 60.0308L44.0158 57.5855C48.4377 54.8941 54.2038 56.2925 56.8988 60.7105L61.7655 68.7302ZM43.2775 31.1872C50.1017 32.2419 54.7775 38.6247 53.7265 45.4452C53.5976 46.2655 53.8007 47.1014 54.2929 47.7694C54.7812 48.4412 55.5195 48.8866 56.3359 49.0116C56.4961 49.035 56.6562 49.0467 56.8203 49.0467C58.3594 49.0467 59.668 47.9217 59.9023 46.3983C60.6601 41.4881 59.4375 36.4725 56.5039 32.4603C53.5703 28.4447 49.1601 25.7611 44.2499 24.9915C43.4296 24.8665 42.5937 25.0696 41.9257 25.5579C41.2577 26.0501 40.8085 26.7845 40.6835 27.6048C40.4179 29.3118 41.5858 30.9056 43.2929 31.1712L43.2775 31.1872ZM46.1252 12.6402C45.2932 12.48 44.4299 12.6714 43.7346 13.1597C43.0432 13.6519 42.5823 14.4019 42.4534 15.2417C42.3245 16.0815 42.5433 16.937 43.0628 17.6089C43.5784 18.2847 44.344 18.7183 45.1878 18.8159C51.7425 19.8276 57.6258 23.3979 61.5428 28.7495C65.4608 34.0972 67.0936 40.7845 66.0819 47.3355C65.9413 48.1636 66.1366 49.0152 66.6288 49.6949C67.1171 50.3746 67.8632 50.8277 68.6913 50.9566C69.5233 51.0816 70.3671 50.8667 71.039 50.3628C71.7109 49.8589 72.1484 49.105 72.2578 48.273C73.5195 40.0855 71.4726 31.726 66.5703 25.046C61.6719 18.3624 54.3162 13.9012 46.1252 12.6402ZM48.0314 0.288163C46.3595 0.0967533 44.84 1.26082 44.5861 2.92096C44.3361 4.58506 45.4416 6.14756 47.0939 6.46006C56.9181 7.99126 65.7349 13.3507 71.6099 21.3741C77.4849 29.3936 79.938 39.4171 78.4302 49.2411C78.2896 50.0692 78.4849 50.9208 78.9771 51.6005C79.4693 52.2802 80.2115 52.7333 81.0435 52.8622C81.8716 52.9872 82.7193 52.7723 83.3873 52.2684C84.0592 51.7645 84.5006 51.0106 84.61 50.1786C86.3639 38.7176 83.4967 27.0266 76.6412 17.6746C69.7896 8.31911 59.5042 2.06561 48.0432 0.287613L48.0314 0.288163Z" fill="black"/>
</svg>
