<svg width="52" height="53" viewBox="0 0 52 53" fill="none" xmlns="http://www.w3.org/2000/svg">
<path d="M25.998 7.0767C24.3237 7.0767 22.9629 5.71152 22.9629 4.03511C22.9629 2.36084 24.3259 1 25.998 1C27.6744 1 29.0396 2.36303 29.0396 4.03511C29.0396 5.71152 27.6766 7.0767 25.998 7.0767ZM25.998 2.099C24.9291 2.099 24.0619 2.96831 24.0619 4.03511C24.0619 5.10619 24.9312 5.9777 25.998 5.9777C27.0691 5.9777 27.9406 5.10625 27.9406 4.03511C27.9406 2.96617 27.0691 2.099 25.998 2.099Z" fill="#68956F" stroke="#68956F" stroke-width="0.5"/>
<path d="M29.3328 10.4084H22.6657C22.3609 10.4084 22.1162 10.1637 22.1162 9.85887C22.1162 7.71884 23.857 5.97803 25.9971 5.97803C28.1392 5.97803 29.8822 7.71884 29.8822 9.85887C29.8822 10.1637 29.6355 10.4084 29.3328 10.4084ZM23.2713 9.30937H28.7298C28.4743 8.03865 27.3453 7.07703 25.9973 7.07703C24.6514 7.07703 23.5267 8.03651 23.2713 9.30937Z" fill="#68956F" stroke="#68956F" stroke-width="0.5"/>
<path d="M25.998 49.3111C24.3237 49.3111 22.9629 47.9459 22.9629 46.2695C22.9629 44.5952 24.3259 43.2344 25.998 43.2344C27.6744 43.2344 29.0396 44.5974 29.0396 46.2695C29.0396 47.9459 27.6766 49.3111 25.998 49.3111ZM25.998 44.3312C24.9291 44.3312 24.0619 45.2005 24.0619 46.2673C24.0619 47.3384 24.9312 48.2099 25.998 48.2099C27.0691 48.2099 27.9406 47.3385 27.9406 46.2673C27.9406 45.1984 27.0691 44.3312 25.998 44.3312Z" fill="#68956F" stroke="#68956F" stroke-width="0.5"/>
<path d="M29.3328 52.6423H22.6657C22.3609 52.6423 22.1162 52.3976 22.1162 52.0928C22.1162 49.9527 23.857 48.2119 25.9971 48.2119C28.1392 48.2119 29.8822 49.9527 29.8822 52.0928C29.8822 52.3976 29.6355 52.6423 29.3328 52.6423ZM23.2713 51.5433H28.7298C28.4743 50.2725 27.3453 49.3109 25.9973 49.3109C24.6514 49.3109 23.5267 50.2725 23.2713 51.5433Z" fill="#68956F" stroke="#68956F" stroke-width="0.5"/>
<path d="M40.9287 13.2608C39.2544 13.2608 37.8936 11.8956 37.8936 10.2192C37.8936 8.54492 39.2566 7.18408 40.9287 7.18408C42.6051 7.18408 43.9703 8.54712 43.9703 10.2192C43.9703 11.8956 42.6051 13.2608 40.9287 13.2608ZM40.9287 8.28308C39.8597 8.28308 38.9926 9.15239 38.9926 10.2192C38.9926 11.2903 39.8619 12.1618 40.9287 12.1618C41.9997 12.1618 42.8713 11.2903 42.8713 10.2192C42.8713 9.15025 41.9998 8.28308 40.9287 8.28308Z" fill="#68956F" stroke="#68956F" stroke-width="0.5"/>
<path d="M44.2644 16.5925H37.5974C37.2925 16.5925 37.0479 16.3478 37.0479 16.043C37.0479 13.9029 38.7887 12.1621 40.9287 12.1621C43.0709 12.1621 44.8138 13.9029 44.8138 16.043C44.8138 16.3456 44.5692 16.5925 44.2644 16.5925ZM38.2029 15.4935H43.6614C43.406 14.2227 42.2769 13.2611 40.9289 13.2611C39.5831 13.2611 38.4583 14.2206 38.2029 15.4935Z" fill="#68956F" stroke="#68956F" stroke-width="0.5"/>
<path d="M11.0646 43.127C9.39032 43.127 8.02734 41.7618 8.02734 40.0854C8.02734 38.4111 9.39038 37.0503 11.0625 37.0503C12.7389 37.0503 14.104 38.4133 14.104 40.0854C14.104 41.7618 12.741 43.127 11.0625 43.127H11.0646ZM11.0646 38.1472C9.99565 38.1472 9.12849 39.0165 9.12849 40.0833C9.12849 41.1543 9.9978 42.0258 11.0667 42.0258C12.1378 42.0258 13.0093 41.1544 13.0093 40.0833C13.0093 39.0143 12.1379 38.1472 11.0667 38.1472H11.0646Z" fill="#68956F" stroke="#68956F" stroke-width="0.5"/>
<path d="M14.4002 46.4562H7.73309C7.43044 46.4562 7.18359 46.2115 7.18359 45.9067C7.18359 43.7667 8.92441 42.0259 11.0644 42.0259C13.2066 42.0259 14.9496 43.7667 14.9496 45.9067C14.9496 46.2115 14.7028 46.4562 14.4002 46.4562ZM8.33645 45.3572H13.795C13.5395 44.0865 12.4105 43.1249 11.0625 43.1249C9.71662 43.1249 8.59185 44.0865 8.3343 45.3572H8.33645Z" fill="#68956F" stroke="#68956F" stroke-width="0.5"/>
<path d="M47.1152 28.1939C45.4409 28.1939 44.0801 26.8287 44.0801 25.1523C44.0801 23.478 45.4431 22.1172 47.1152 22.1172C48.7916 22.1172 50.1568 23.4802 50.1568 25.1544C50.1568 26.8309 48.7916 28.196 47.1152 28.196V28.1939ZM47.1152 23.214C46.0462 23.214 45.1791 24.0834 45.1791 25.1502C45.1791 26.2212 46.0484 27.0927 47.1152 27.0927C48.1863 27.0927 49.0578 26.2213 49.0578 25.1502C49.0578 24.0834 48.1863 23.2119 47.1152 23.2119V23.214Z" fill="#68956F" stroke="#68956F" stroke-width="0.5"/>
<path d="M50.451 31.5251H43.7839C43.4791 31.5251 43.2344 31.2804 43.2344 30.9756C43.2344 28.8355 44.9752 27.0947 47.1152 27.0947C49.2574 27.0947 51.0003 28.8355 51.0003 30.9756C51.0003 31.2782 50.7558 31.5251 50.451 31.5251ZM44.3894 30.4261H49.8479C49.5925 29.1554 48.4635 28.1937 47.1154 28.1937C45.7696 28.1937 44.6448 29.1532 44.3894 30.4261Z" fill="#68956F" stroke="#68956F" stroke-width="0.5"/>
<path d="M4.87788 28.1939C3.20361 28.1939 1.84277 26.8287 1.84277 25.1523C1.84277 23.478 3.20581 22.1172 4.87788 22.1172C6.5543 22.1172 7.91948 23.4802 7.91948 25.1523C7.91948 26.8287 6.5543 28.1939 4.87788 28.1939ZM4.87788 23.214C3.80894 23.214 2.94177 24.0834 2.94177 25.1502C2.94177 26.2212 3.81108 27.0927 4.87788 27.0927C5.94897 27.0927 6.82047 26.2213 6.82047 25.1502C6.82047 24.0834 5.94902 23.214 4.87788 23.214Z" fill="#68956F" stroke="#68956F" stroke-width="0.5"/>
<path d="M8.21658 31.5251H1.5495C1.24685 31.5251 1 31.2804 1 30.9756C1 28.8355 2.74082 27.0947 4.88084 27.0947C7.02302 27.0947 8.76597 28.8355 8.76597 30.9756C8.76597 31.2782 8.51924 31.5251 8.21658 31.5251ZM2.15505 30.4261H7.61356C7.35813 29.1554 6.2291 28.1937 4.88106 28.1937C3.53523 28.1937 2.41046 29.1532 2.15291 30.4261H2.15505Z" fill="#68956F" stroke="#68956F" stroke-width="0.5"/>
<path d="M40.9287 43.127C39.2544 43.127 37.8936 41.7618 37.8936 40.0854C37.8936 38.4111 39.2566 37.0503 40.9287 37.0503C42.6051 37.0503 43.9703 38.4133 43.9703 40.0854C43.9703 41.7618 42.6051 43.127 40.9287 43.127ZM40.9287 38.1472C39.8597 38.1472 38.9926 39.0165 38.9926 40.0833C38.9926 41.1543 39.8619 42.0258 40.9287 42.0258C41.9997 42.0258 42.8713 41.1544 42.8713 40.0833C42.8713 39.0143 41.9998 38.1472 40.9287 38.1472Z" fill="#68956F" stroke="#68956F" stroke-width="0.5"/>
<path d="M44.2644 46.4562H37.5974C37.2925 46.4562 37.0479 46.2115 37.0479 45.9067C37.0479 43.7667 38.7887 42.0259 40.9287 42.0259C43.0709 42.0259 44.8138 43.7667 44.8138 45.9067C44.8138 46.2115 44.5692 46.4562 44.2644 46.4562ZM38.2029 45.3572H43.6614C43.406 44.0865 42.2769 43.1249 40.9289 43.1249C39.5831 43.1249 38.4583 44.0865 38.2029 45.3572Z" fill="#68956F" stroke="#68956F" stroke-width="0.5"/>
<path d="M11.0644 13.2605C9.39013 13.2605 8.0293 11.8974 8.0293 10.2189C8.0293 8.54462 9.39233 7.18164 11.0644 7.18164C12.7408 7.18164 14.106 8.54467 14.106 10.2189C14.106 11.8953 12.7408 13.2605 11.0644 13.2605ZM11.0644 8.28278C9.99546 8.28278 9.1283 9.15209 9.1283 10.221C9.1283 11.2921 9.99761 12.1636 11.0644 12.1636C12.1355 12.1636 13.007 11.2922 13.007 10.221C13.007 9.15209 12.1355 8.28278 11.0644 8.28278Z" fill="#68956F" stroke="#68956F" stroke-width="0.5"/>
<path d="M14.4002 16.5925H7.73309C7.43044 16.5925 7.18359 16.3478 7.18359 16.043C7.18359 13.9029 8.92441 12.1621 11.0644 12.1621C13.2066 12.1621 14.9496 13.9029 14.9496 16.043C14.9496 16.3456 14.7028 16.5925 14.4002 16.5925ZM8.33645 15.4935H13.795C13.5395 14.2227 12.4105 13.2611 11.0625 13.2611C9.71662 13.2611 8.59185 14.2206 8.3343 15.4935H8.33645Z" fill="#68956F" stroke="#68956F" stroke-width="0.5"/>
<path d="M33.3239 23.7033C33.296 23.875 33.2788 24.0446 33.2402 24.212C33.1972 24.3944 33.1436 24.5726 33.0921 24.7529C35.5369 25.6974 37.1468 27.597 37.1468 29.7091C37.1468 31.2224 36.3569 32.6391 34.923 33.6994L34.6332 33.9141L34.7212 34.264C35.0067 35.3608 36.0113 35.9232 36.7067 36.301C35.6056 36.4491 33.2101 36.2044 32.0081 34.7813L31.8084 34.5408L31.4993 34.601C31.0185 34.6975 30.4583 34.7448 29.7843 34.7448C26.4809 34.7448 23.7997 33.4655 22.7545 31.5529C22.3253 31.5444 21.9217 31.5165 21.5439 31.4692C22.5292 34.0772 25.6974 35.8051 29.7842 35.8051C30.396 35.8051 30.9283 35.7686 31.4091 35.6956C32.579 36.8805 34.4915 37.3957 36.037 37.3957C36.14 37.3957 36.2409 37.3935 36.3375 37.3892C37.2368 37.3463 37.8228 37.1403 38.0804 36.7711C38.1942 36.6079 38.235 36.4105 38.1899 36.2216C38.1019 35.8416 37.752 35.6549 37.269 35.3973C36.7947 35.1397 36.17 34.8028 35.8781 34.2983C37.3635 33.0705 38.2071 31.4199 38.2071 29.707C38.2071 27.1033 36.2581 24.7786 33.3217 23.6987L33.3239 23.7033Z" fill="#68956F" stroke="#68956F" stroke-width="0.5"/>
<path d="M23.1067 14.0464C18.0174 14.0464 13.791 17.7405 13.791 22.39C13.791 24.6202 14.787 26.6465 16.3689 28.1405L16.3196 28.3831C15.9611 29.4284 15.0853 30.0209 14.5659 30.2097C14.2632 30.3149 14.01 30.4823 13.8726 30.7678C13.7352 31.0511 13.8189 31.444 14.025 31.65C14.5122 32.1373 15.1411 32.09 15.6027 32.0943C17.3348 32.1136 19.374 31.2078 20.6104 30.5896L20.6254 30.5832L21.0483 30.3406L20.8873 30.2891L20.9045 30.2956C21.5935 30.4523 22.3147 30.5038 23.0252 30.5038C27.4985 30.5038 31.3513 27.8314 32.2013 23.9873V23.9851C32.3151 23.4721 32.3752 22.9398 32.3752 22.3946C32.3752 17.7517 28.1938 14.051 23.1046 14.051L23.1067 14.0464ZM23.1067 15.1089C27.683 15.1089 31.3129 18.3866 31.3129 22.3898C31.3129 22.8599 31.2614 23.3149 31.1648 23.7528C30.4415 27.0348 27.0801 29.439 23.0273 29.439C22.3726 29.439 21.7286 29.3897 21.1491 29.2566L20.9173 29.1879L20.1295 29.6408C18.9554 30.2268 16.9334 31.0489 15.6133 31.0317C15.433 31.0317 15.4158 30.9974 15.2891 30.9823C16.0447 30.6131 16.914 29.9434 17.3304 28.7135L17.339 28.6856L17.5301 27.7905L17.2961 27.5845C15.7764 26.2558 14.8513 24.4141 14.8513 22.3921C14.8513 18.3911 18.5282 15.1112 23.1047 15.1112L23.1067 15.1089Z" fill="#68956F" stroke="#68956F" stroke-width="0.5"/>
</svg>
