<svg width="50" height="10" viewBox="0 0 50 10" fill="none" xmlns="http://www.w3.org/2000/svg">
<g clip-path="url(#clip0_824_152)">
<path d="M18.9979 3.58996L16.4439 3.21896L15.3009 0.903961C15.1329 0.561961 14.5719 0.561961 14.4049 0.903961L13.2619 3.21896L10.7079 3.58996C10.5199 3.61696 10.3629 3.74896 10.3039 3.92996C10.2449 4.11096 10.2939 4.30996 10.4299 4.44296L12.2789 6.24596L11.8419 8.78896C11.8099 8.97696 11.8869 9.16696 12.0409 9.27796C12.1949 9.38996 12.3999 9.40596 12.5679 9.31596L14.8529 8.11496L17.1379 9.31596C17.2109 9.35496 17.2909 9.37396 17.3709 9.37396C17.4749 9.37396 17.5779 9.34196 17.6649 9.27796C17.8189 9.16696 17.8959 8.97596 17.8639 8.78896L17.4269 6.24596L19.2759 4.44296C19.4119 4.30996 19.4609 4.11096 19.4019 3.92996C19.3419 3.74996 19.1859 3.61796 18.9979 3.58996Z" fill="#262626"/>
<path d="M8.85146 3.59096L6.29645 3.21896L5.15346 0.903961C4.98546 0.561961 4.42446 0.561961 4.25746 0.903961L3.11446 3.21896L0.560456 3.59096C0.372456 3.61796 0.215456 3.74996 0.156456 3.93096C0.0974554 4.11196 0.146455 4.30996 0.282455 4.44296L2.13046 6.24396L1.69546 8.78996C1.66346 8.97796 1.74046 9.16696 1.89446 9.27796C2.04946 9.38996 2.25345 9.40596 2.42145 9.31596L4.70646 8.11496L6.99146 9.31596C7.06446 9.35496 7.14446 9.37396 7.22446 9.37396C7.32846 9.37396 7.43146 9.34196 7.51846 9.27796C7.67246 9.16696 7.74946 8.97696 7.71746 8.78996L7.28146 6.24496L9.13046 4.44396C9.26646 4.31096 9.31546 4.11196 9.25646 3.93096C9.19746 3.74996 9.04046 3.61896 8.85146 3.59096Z" fill="#262626"/>
<path d="M49.8439 3.93194C49.7849 3.75094 49.6289 3.61894 49.4409 3.59194L46.8859 3.21994L45.7429 0.904938C45.5749 0.562937 45.0139 0.562937 44.8469 0.904938L43.7039 3.21994L41.1479 3.59194C40.9599 3.61894 40.8029 3.75094 40.7449 3.93194C40.6869 4.11294 40.7349 4.31194 40.8719 4.44494L42.7209 6.24594L42.2829 8.78994C42.2509 8.97794 42.3279 9.16794 42.4819 9.27894C42.5689 9.34194 42.6719 9.37494 42.7759 9.37494C42.8559 9.37494 42.9349 9.35594 43.0079 9.31694L45.2939 8.11494L47.5789 9.31694C47.7469 9.40694 47.9509 9.39094 48.1049 9.27894C48.2589 9.16794 48.3359 8.97694 48.3039 8.78994L47.8659 6.24594L49.7149 4.44494C49.8539 4.31194 49.9019 4.11294 49.8439 3.93194Z" fill="#262626"/>
<path d="M39.2929 3.591L36.7369 3.219L35.5939 0.903999C35.5099 0.732999 35.3359 0.625 35.1459 0.625C34.9559 0.625 34.7819 0.732999 34.6979 0.903999L33.5539 3.219L30.9999 3.591C30.8119 3.618 30.6549 3.75 30.5969 3.931C30.5379 4.112 30.5869 4.31 30.7239 4.443L32.5719 6.244L32.1349 8.789C32.1029 8.977 32.1799 9.166 32.3339 9.277C32.4209 9.34 32.5239 9.373 32.6279 9.373C32.7079 9.373 32.7869 9.354 32.8599 9.315L35.1449 8.114L37.4289 9.315C37.5969 9.405 37.8009 9.389 37.9549 9.277C38.1079 9.166 38.1859 8.976 38.1539 8.789L37.7179 6.244L39.5669 4.443C39.7039 4.31 39.7529 4.111 39.6939 3.93C39.6349 3.749 39.4809 3.619 39.2929 3.591Z" fill="#262626"/>
<path d="M29.1464 3.59096L26.5914 3.21896L25.4474 0.903961C25.2794 0.561961 24.7184 0.561961 24.5514 0.903961L23.4084 3.21896L20.8544 3.59096C20.6664 3.61796 20.5094 3.74996 20.4504 3.93096C20.3914 4.11196 20.4404 4.30996 20.5764 4.44296L22.4244 6.24396L21.9904 8.78996C21.9584 8.97796 22.0354 9.16696 22.1894 9.27796C22.3444 9.38996 22.5484 9.40596 22.7164 9.31596L25.0004 8.11496L27.2844 9.31596C27.3574 9.35496 27.4364 9.37396 27.5164 9.37396C27.6204 9.37396 27.7234 9.34196 27.8104 9.27796C27.9634 9.16696 28.0414 8.97696 28.0094 8.78996L27.5734 6.24496L29.4224 4.44396C29.5594 4.31096 29.6084 4.11196 29.5494 3.93096C29.4904 3.74996 29.3344 3.61896 29.1464 3.59096Z" fill="#262626"/>
</g>
<defs>
<clipPath id="clip0_824_152">
<rect width="50" height="10" fill="white"/>
</clipPath>
</defs>
</svg>
