<svg width="99" height="52" viewBox="0 0 99 52" fill="none" xmlns="http://www.w3.org/2000/svg">
<path d="M10.7339 21.54C8.79391 21.54 7.03391 21.15 5.45391 20.37C3.89391 19.57 2.65391 18.39 1.73391 16.83C0.813906 15.27 0.353906 13.36 0.353906 11.1C0.353906 9.38 0.633906 7.87 1.19391 6.57C1.75391 5.27 2.51391 4.18 3.47391 3.3C4.45391 2.42 5.57391 1.76 6.83391 1.32C8.11391 0.879999 9.46391 0.659999 10.8839 0.659999C12.0239 0.659999 13.0739 0.789999 14.0339 1.05C14.9939 1.31 15.8939 1.67 16.7339 2.13L16.8539 5.82H16.5539L15.0539 3.42C14.8539 3.04 14.6339 2.7 14.3939 2.4C14.1539 2.08 13.8539 1.84 13.4939 1.68C13.1939 1.54 12.8939 1.44 12.5939 1.38C12.3139 1.3 11.9539 1.26 11.5139 1.26C10.3539 1.26 9.29391 1.57 8.33391 2.19C7.39391 2.81 6.63391 3.84 6.05391 5.28C5.49391 6.7 5.21391 8.65 5.21391 11.13C5.21391 13.59 5.48391 15.54 6.02391 16.98C6.56391 18.4 7.29391 19.42 8.21391 20.04C9.15391 20.64 10.2039 20.94 11.3639 20.94C12.0039 20.94 12.5139 20.9 12.8939 20.82C13.2739 20.72 13.6539 20.58 14.0339 20.4C14.4139 20.24 14.7039 20.01 14.9039 19.71C15.1039 19.39 15.2839 19.05 15.4439 18.69L16.7639 15.75H17.0639L16.9739 20.04C16.1339 20.48 15.1939 20.84 14.1539 21.12C13.1139 21.4 11.9739 21.54 10.7339 21.54ZM17.8943 21V20.7L18.6443 20.43C19.0443 20.27 19.3543 20.08 19.5743 19.86C19.7943 19.62 19.9743 19.29 20.1143 18.87L26.2943 1.14H28.8443L34.9343 18.99C35.0943 19.43 35.2743 19.77 35.4743 20.01C35.6743 20.23 35.9843 20.42 36.4043 20.58L36.7643 20.7V21H29.1443V20.7L29.5943 20.55C30.0143 20.39 30.2643 20.17 30.3443 19.89C30.4443 19.59 30.4343 19.24 30.3143 18.84L28.9043 14.52H22.2443L20.8043 18.75C20.6643 19.19 20.6143 19.54 20.6543 19.8C20.7143 20.06 20.9543 20.27 21.3743 20.43L22.0343 20.7V21H17.8943ZM22.4543 13.92H28.7243L25.6943 4.59L22.4543 13.92ZM38.0988 21V20.7L39.0888 20.4C39.4488 20.3 39.7088 20.11 39.8688 19.83C40.0288 19.53 40.1088 19.18 40.1088 18.78V4.35C39.8888 3.87 39.7088 3.51 39.5688 3.27C39.4488 3.03 39.3088 2.83 39.1488 2.67C38.9888 2.49 38.7688 2.27 38.4888 2.01L37.9788 1.5V1.2H43.2888L53.2488 14.79V3.48C53.2488 3.08 53.1788 2.72 53.0388 2.4C52.9188 2.08 52.6588 1.87 52.2588 1.77L51.2688 1.5V1.2H55.5588V1.5L54.7488 1.77C54.3888 1.89 54.1688 2.1 54.0888 2.4C54.0088 2.7 53.9688 3.05 53.9688 3.45V21.09H52.2888L40.8288 5.34V18.78C40.8288 19.18 40.8888 19.52 41.0088 19.8C41.1288 20.08 41.3788 20.28 41.7588 20.4L42.6588 20.7V21H38.0988ZM64.2316 21V20.7L65.2216 20.4C65.5816 20.3 65.8416 20.11 66.0016 19.83C66.1616 19.53 66.2416 19.18 66.2416 18.78V4.35C66.0216 3.87 65.8416 3.51 65.7016 3.27C65.5816 3.03 65.4416 2.83 65.2816 2.67C65.1216 2.49 64.9016 2.27 64.6216 2.01L64.1116 1.5V1.2H69.4216L79.3816 14.79V3.48C79.3816 3.08 79.3116 2.72 79.1716 2.4C79.0516 2.08 78.7916 1.87 78.3916 1.77L77.4016 1.5V1.2H81.6916V1.5L80.8816 1.77C80.5216 1.89 80.3016 2.1 80.2216 2.4C80.1416 2.7 80.1016 3.05 80.1016 3.45V21.09H78.4216L66.9616 5.34V18.78C66.9616 19.18 67.0216 19.52 67.1416 19.8C67.2616 20.08 67.5116 20.28 67.8916 20.4L68.7916 20.7V21H64.2316ZM83.059 21V20.64L93.469 1.8H87.769C87.109 1.8 86.569 1.95 86.149 2.25C85.749 2.55 85.389 2.99 85.069 3.57L83.689 6H83.389L83.599 1.2H98.269V1.56L87.859 20.4H94.399C95.059 20.4 95.579 20.25 95.959 19.95C96.359 19.63 96.719 19.18 97.039 18.6L98.329 16.2H98.629L98.419 21H83.059ZM8.56477 51V50.7L9.79477 50.4C10.6148 50.22 11.0248 49.72 11.0248 48.9V31.8H8.47477C7.73477 31.8 7.20477 32 6.88477 32.4C6.56477 32.78 6.22477 33.31 5.86477 33.99L4.78477 36.09H4.48477L4.63477 31.2H21.9448L22.0648 36.09H21.7648L20.6848 33.99C20.3448 33.31 20.0148 32.78 19.6948 32.4C19.3748 32 18.8448 31.8 18.1048 31.8H15.5548V48.9C15.5548 49.72 15.9648 50.22 16.7848 50.4L18.0148 50.7V51H8.56477ZM32.2746 51.54C31.0546 51.54 29.8746 51.32 28.7346 50.88C27.6146 50.44 26.6046 49.79 25.7046 48.93C24.8246 48.05 24.1246 46.96 23.6046 45.66C23.0846 44.36 22.8246 42.84 22.8246 41.1C22.8246 39.38 23.0846 37.87 23.6046 36.57C24.1246 35.27 24.8346 34.19 25.7346 33.33C26.6346 32.45 27.6446 31.79 28.7646 31.35C29.9046 30.89 31.0746 30.66 32.2746 30.66C33.4946 30.66 34.6646 30.88 35.7846 31.32C36.9246 31.74 37.9346 32.39 38.8146 33.27C39.7146 34.13 40.4246 35.22 40.9446 36.54C41.4646 37.84 41.7246 39.36 41.7246 41.1C41.7246 42.8 41.4646 44.31 40.9446 45.63C40.4246 46.93 39.7146 48.02 38.8146 48.9C37.9346 49.76 36.9246 50.42 35.7846 50.88C34.6646 51.32 33.4946 51.54 32.2746 51.54ZM32.2746 50.91C33.3746 50.91 34.2646 50.62 34.9446 50.04C35.6246 49.44 36.1146 48.43 36.4146 47.01C36.7346 45.57 36.8946 43.6 36.8946 41.1C36.8946 38.58 36.7346 36.61 36.4146 35.19C36.1146 33.75 35.6246 32.74 34.9446 32.16C34.2646 31.56 33.3746 31.26 32.2746 31.26C31.1946 31.26 30.3146 31.56 29.6346 32.16C28.9546 32.74 28.4546 33.75 28.1346 35.19C27.8346 36.61 27.6846 38.58 27.6846 41.1C27.6846 43.6 27.8346 45.57 28.1346 47.01C28.4546 48.43 28.9546 49.44 29.6346 50.04C30.3146 50.62 31.1946 50.91 32.2746 50.91ZM51.9063 51.54C50.3863 51.54 49.0363 51.27 47.8563 50.73C46.6963 50.19 45.7863 49.34 45.1263 48.18C44.4863 47 44.1663 45.45 44.1663 43.53V33.18C44.1663 32.42 43.7763 31.92 42.9963 31.68L42.3363 31.5V31.2H50.6463V31.5L49.7763 31.74C49.0363 31.92 48.6663 32.42 48.6663 33.24V44.31C48.6663 46.17 49.0563 47.55 49.8363 48.45C50.6163 49.33 51.7363 49.77 53.1963 49.77C54.7163 49.77 55.9163 49.3 56.7963 48.36C57.6963 47.42 58.1463 46.09 58.1463 44.37V33.36C58.1463 32.96 58.0763 32.61 57.9363 32.31C57.8163 31.99 57.5563 31.78 57.1563 31.68L56.4063 31.5V31.2H60.6063V31.5L59.7963 31.71C59.4163 31.79 59.1663 31.98 59.0463 32.28C58.9263 32.58 58.8663 32.93 58.8663 33.33V44.31C58.8663 45.77 58.5763 47.05 57.9963 48.15C57.4163 49.23 56.6063 50.07 55.5663 50.67C54.5263 51.25 53.3063 51.54 51.9063 51.54ZM61.3807 51V50.7L62.0107 50.49C62.4107 50.35 62.6707 50.17 62.7907 49.95C62.9107 49.71 62.9707 49.38 62.9707 48.96V33.27C62.9707 32.87 62.9107 32.56 62.7907 32.34C62.6907 32.1 62.4507 31.91 62.0707 31.77L61.3807 31.5V31.2H69.9607C72.3207 31.2 74.1307 31.65 75.3907 32.55C76.6507 33.43 77.2807 34.66 77.2807 36.24C77.2807 37.12 76.9507 38 76.2907 38.88C75.6307 39.76 74.5907 40.44 73.1707 40.92L77.3407 49.2C77.5207 49.54 77.7207 49.82 77.9407 50.04C78.1807 50.24 78.4907 50.42 78.8707 50.58L79.2607 50.73V51H73.8907L69.4507 41.55H67.4107V48.96C67.4107 49.34 67.4707 49.65 67.5907 49.89C67.7107 50.13 67.9607 50.31 68.3407 50.43L69.0607 50.7V51H61.3807ZM67.4107 40.95H68.8507C70.2907 40.95 71.3307 40.57 71.9707 39.81C72.6107 39.03 72.9307 37.88 72.9307 36.36C72.9307 34.82 72.6307 33.68 72.0307 32.94C71.4307 32.18 70.4207 31.8 69.0007 31.8H67.4107V40.95ZM86.5807 51.54C85.4807 51.54 84.3607 51.4 83.2207 51.12C82.0807 50.86 81.1307 50.51 80.3707 50.07L80.5207 45.99H80.8207L81.7507 47.94C82.0307 48.5 82.3307 49 82.6507 49.44C82.9707 49.86 83.4107 50.19 83.9707 50.43C84.3707 50.63 84.7507 50.77 85.1107 50.85C85.4907 50.91 85.9107 50.94 86.3707 50.94C87.5907 50.94 88.5507 50.61 89.2507 49.95C89.9707 49.29 90.3307 48.44 90.3307 47.4C90.3307 46.42 90.0907 45.66 89.6107 45.12C89.1307 44.56 88.3607 44.02 87.3007 43.5L86.0707 42.96C84.3507 42.2 83.0007 41.33 82.0207 40.35C81.0607 39.35 80.5807 38.03 80.5807 36.39C80.5807 35.21 80.8807 34.19 81.4807 33.33C82.1007 32.47 82.9507 31.81 84.0307 31.35C85.1307 30.89 86.4107 30.66 87.8707 30.66C88.9307 30.66 89.9307 30.8 90.8707 31.08C91.8307 31.36 92.6607 31.74 93.3607 32.22L93.1807 35.82H92.8807L91.6507 33.57C91.3107 32.87 90.9707 32.38 90.6307 32.1C90.2907 31.8 89.9007 31.59 89.4607 31.47C89.2007 31.39 88.9607 31.34 88.7407 31.32C88.5207 31.28 88.2407 31.26 87.9007 31.26C86.8807 31.26 86.0207 31.56 85.3207 32.16C84.6207 32.74 84.2707 33.53 84.2707 34.53C84.2707 35.55 84.5407 36.37 85.0807 36.99C85.6207 37.59 86.4107 38.13 87.4507 38.61L88.8307 39.21C90.7507 40.05 92.1307 40.95 92.9707 41.91C93.8107 42.85 94.2307 44.07 94.2307 45.57C94.2307 47.33 93.5607 48.77 92.2207 49.89C90.9007 50.99 89.0207 51.54 86.5807 51.54Z" fill="#262626"/>
</svg>
