<svg width="343" height="299" viewBox="0 0 343 299" fill="none" xmlns="http://www.w3.org/2000/svg">
<path d="M343 220.193V230.441H334.628C334.132 230.441 266.128 227.023 265.367 234.54L263.084 252.985L219.701 262.208C220.462 263.914 191.388 240.483 135.979 268.356L137.502 280.141L139.024 291.926L97.9242 295C89.0447 283.728 69.4589 265.897 62.1523 284.752C59.869 283.386 55.3024 280.244 55.3024 278.604V268.356C57.0783 266.99 60.3256 263.643 59.1079 261.183C58.6005 258.451 55.9112 253.805 49.2135 257.084C36.2747 257.767 10.0927 260.363 8.87497 265.282C5.06945 265.965 -1.93272 265.077 0.502818 256.059C0.962405 249.228 2.27647 235.564 3.85606 235.564C12.0692 226.527 23.1477 214.517 26.3804 208.921C31.7081 199.698 34.7525 180.228 34.7525 177.153C34.7525 151.452 37.797 150.168 39.3192 138.213L62.9135 97.2228L71.2856 94.1485L69.7634 100.297C74.0763 99.2723 82.8544 96.6079 83.4632 94.1485C84.2243 91.0743 96.402 112.594 97.9242 121.817C99.4464 131.04 106.296 124.891 109.341 121.817C112.385 118.743 112.385 100.297 116.191 100.297C119.996 100.297 132.935 102.347 135.218 97.2228V92.099H148.157L153.485 88C157.798 104.396 168.098 135.958 174.796 131.04C181.494 126.121 192.809 104.396 197.629 94.1485C199.151 96.198 205.392 100.297 218.179 100.297C220.716 102.005 225.638 107.47 225.029 115.668C224.268 125.916 234.549 116.943 235.684 115.668C238.729 112.251 241.773 104.053 244.056 100.297C244.919 98.8785 253.19 102.004 256.995 100.297L259.278 96.8798L276.023 97.2228V98.2475L280.589 108.495C297.029 156.863 343 217.801 343 220.193Z" fill="#68956F"/>
<path d="M158.813 88.2252H153.485L148.157 92.3128H135.218V97.4223C132.935 102.532 119.996 100.488 116.191 100.488C112.385 100.488 112.385 118.882 109.341 121.948C106.296 125.014 99.4464 131.145 97.9242 121.948C96.402 112.751 84.2244 91.2909 83.4633 94.3566C82.8544 96.8092 74.0763 99.4661 69.7634 100.488L71.2856 94.3566L62.9135 97.4223C67.9875 95.3785 80.8755 81.8895 91.8354 44.2836C105.535 -2.72365 107.058 4.42963 110.863 0.342036C113.907 -2.92804 118.22 18.0549 119.996 28.9552C122.28 28.6145 127.607 27.9333 130.652 27.9333C133.696 27.9333 150.694 68.1279 158.813 88.2252Z" fill="white"/>
<path d="M280.589 86.1814L276.023 93.3347V97.4223L259.278 97.0803L256.995 100.488C253.19 102.19 244.919 99.0734 244.056 100.488C241.773 104.234 238.729 112.409 235.684 115.816C234.549 117.088 224.268 126.035 225.029 115.816C225.638 107.641 220.716 102.191 218.179 100.488C205.392 100.488 199.151 96.4004 197.629 94.3566L235.684 21.8019L241.012 22.8238L246.34 42.2398H254.712L264.606 54.5026L280.589 86.1814Z" fill="white"/>
<path d="M156.35 83H201.314C224.136 87.107 247.655 84.0149 271.158 118.759C290.219 143.972 286.131 182.737 286.131 185.19C286.131 188.255 282.044 207.672 274.89 216.869C270.55 222.449 255.676 234.425 244.648 243.438C237.502 249.279 237.08 249.227 231.971 254.679C230.853 255.872 228.905 258.082 226.861 264.556C224.817 271.029 223.796 273.753 225.839 281.248C226.32 283.012 229.246 287.72 231.971 291.467C225.499 291.808 221.752 290.103 213.577 290.103C211.942 290.103 209.148 294.533 207.445 297.599C206.083 297.939 202.949 298.416 201.314 297.599C199.679 296.781 201.314 291.808 202.336 289.423C198.248 291.058 187.689 290.105 182.92 289.423C188.642 283.701 205.061 280.226 212.555 279.204C216.642 277.569 216.983 274.436 216.642 273.073C215.906 270.129 218.005 254.679 216.642 250.591C216.549 249.095 216.294 247.736 215.906 246.504C212.905 236.957 202.336 235.263 196.204 235.263C192.117 236.965 188.511 240.912 184.508 252.635C182.677 258 181.03 260.513 179.854 264.898C179.854 264.898 184.963 269.665 183.942 275.117C180.876 274.775 168.954 279.204 160.438 285.336L162.482 277.161C160.847 274.708 149.538 280.226 144.088 283.292C141.635 273.482 162.822 266.26 173.723 263.876C172.905 252.431 179.854 235.263 177.81 231.175C175.766 227.088 152.025 224.141 141.81 218.912C121.054 208.289 107.503 194.074 100.146 183.088C97.8493 179.658 96.0584 174.629 95.0365 173.949L90.9489 172.927C87.8832 171.563 43.9416 190.979 40.8759 189.277C38.8321 183.088 10.9002 234.922 0 263.876C8.17518 212.372 33.7226 184.848 31.6789 182.124C30.9976 182.805 31.6789 173.949 34.7446 151.467C39.2165 118.673 58.2482 118.766 63.3577 117.745C67.4453 116.927 78.6861 117.745 86.8614 118.766H100.146L106.277 114.679C115.27 90.9708 143.406 83.6813 156.35 83Z" fill="#5D463D"/>
</svg>
