<svg width="62" height="67" viewBox="0 0 62 67" fill="none" xmlns="http://www.w3.org/2000/svg">
<mask id="path-1-outside-1_736_91" maskUnits="userSpaceOnUse" x="0" y="0" width="48" height="37" fill="black">
<rect fill="white" width="48" height="37"/>
<path d="M39.8989 32.4167H43.8203C45.5732 32.4167 47 30.871 47 28.9715V21.8436C47 20.6222 46.4238 19.5145 45.4551 18.8771L36.9502 13.3541L36.1963 4.33728C36.041 2.46578 34.5586 1 32.8203 1H8.38965C6.52051 1 5 2.64775 5 4.67265V8.58333H3.62012C2.17578 8.58333 1 9.85657 1 11.4218V19.8282C1 21.3934 2.17578 22.6667 3.62012 22.6667H5V29.5782C5 31.1434 6.17578 32.4167 7.62012 32.4167H10.1011C10.5657 34.8859 12.5856 36.75 15 36.75C17.4144 36.75 19.4343 34.8859 19.8989 32.4167H30.1011C30.5657 34.8859 32.5856 36.75 35 36.75C37.4144 36.75 39.4343 34.8859 39.8989 32.4167ZM34.2041 4.53194L34.9052 12.9167H26V3.16667H32.8203C33.5332 3.16667 34.1406 3.76599 34.2041 4.53194ZM16 12.9167V3.16667H24V12.9167H16ZM7 4.67265C7 3.84216 7.62305 3.16667 8.38965 3.16667H14V12.9167H7V9.66667V4.67265ZM3.62012 20.5C3.28418 20.5 3 20.1921 3 19.8282V11.4218C3 11.0579 3.28418 10.75 3.62012 10.75H5V20.5H3.62012ZM7 29.5782V21.5833V19.4167H22C22.5527 19.4167 23 18.9316 23 18.3333C23 17.7351 22.5527 17.25 22 17.25H7V15.0833H35.7224L44.4219 20.7327C44.7842 20.9708 45 21.386 45 21.8436V28.9715C45 29.6766 44.4707 30.25 43.8203 30.25H39.8994L39.8986 30.2472C39.8949 30.2274 39.8869 30.2095 39.883 30.1899C39.8208 29.8783 39.7335 29.5777 39.6241 29.2885C39.5847 29.1842 39.5318 29.0892 39.4866 28.9883C39.3984 28.791 39.3073 28.5967 39.1984 28.4135C39.1343 28.3058 39.0615 28.207 38.9907 28.1046C38.8792 27.9432 38.764 27.7872 38.637 27.6404C38.5533 27.5437 38.4659 27.4536 38.3759 27.3638C38.2415 27.2294 38.1015 27.1045 37.9541 26.9866C37.8558 26.908 37.7578 26.8319 37.6542 26.761C37.4954 26.6523 37.3294 26.5587 37.1592 26.4696C37.0532 26.4141 36.9503 26.3555 36.8404 26.308C36.6482 26.2251 36.4478 26.1642 36.2447 26.1072C36.1458 26.0795 36.0513 26.042 35.9501 26.0207C35.6418 25.9561 35.3255 25.9167 35 25.9167C34.6745 25.9167 34.3582 25.9561 34.0499 26.0207C33.9487 26.042 33.8542 26.0795 33.7553 26.1072C33.5522 26.1642 33.3518 26.2251 33.1596 26.308C33.0497 26.3555 32.9468 26.4141 32.8408 26.4696C32.6706 26.5587 32.5046 26.6523 32.3458 26.761C32.2422 26.8319 32.1442 26.908 32.0459 26.9866C31.8985 27.1045 31.7585 27.2294 31.6241 27.3638C31.5341 27.4536 31.4467 27.5437 31.363 27.6404C31.236 27.7872 31.1208 27.9432 31.0093 28.1046C30.9385 28.207 30.8657 28.3058 30.8016 28.4135C30.6927 28.5967 30.6016 28.791 30.5134 28.9883C30.4682 29.0892 30.4153 29.1842 30.3759 29.2885C30.2665 29.5777 30.1792 29.8783 30.117 30.1899C30.1131 30.2095 30.1051 30.2274 30.1014 30.2472L30.1006 30.25H19.8994L19.8986 30.2472C19.8949 30.2274 19.8869 30.2095 19.883 30.1899C19.8208 29.8783 19.7335 29.5777 19.6241 29.2885C19.5847 29.1842 19.5318 29.0892 19.4866 28.9883C19.3984 28.791 19.3073 28.5967 19.1984 28.4135C19.1343 28.3058 19.0615 28.207 18.9907 28.1046C18.8792 27.9432 18.764 27.7872 18.637 27.6404C18.5533 27.5437 18.4659 27.4536 18.3759 27.3638C18.2415 27.2294 18.1015 27.1045 17.9541 26.9866C17.8558 26.908 17.7578 26.8319 17.6542 26.761C17.4954 26.6523 17.3294 26.5587 17.1592 26.4696C17.0532 26.4141 16.9503 26.3555 16.8404 26.308C16.6482 26.2251 16.4478 26.1642 16.2447 26.1072C16.1458 26.0795 16.0513 26.042 15.9501 26.0207C15.6418 25.9561 15.3255 25.9167 15 25.9167C14.6745 25.9167 14.3582 25.9561 14.0499 26.0207C13.9487 26.042 13.8542 26.0795 13.7553 26.1072C13.5522 26.1642 13.3518 26.2251 13.1596 26.308C13.0497 26.3555 12.9468 26.4141 12.8408 26.4696C12.6706 26.5587 12.5046 26.6523 12.3458 26.761C12.2422 26.8319 12.1442 26.908 12.0459 26.9866C11.8985 27.1045 11.7585 27.2294 11.6241 27.3638C11.5341 27.4536 11.4467 27.5437 11.363 27.6404C11.236 27.7872 11.1208 27.9432 11.0093 28.1046C10.9385 28.207 10.8657 28.3058 10.8016 28.4135C10.6927 28.5967 10.6016 28.791 10.5134 28.9883C10.4682 29.0892 10.4153 29.1842 10.3759 29.2885C10.2665 29.5777 10.1792 29.8783 10.117 30.1899C10.1131 30.2095 10.1051 30.2274 10.1014 30.2472L10.1006 30.25H7.62012C7.28418 30.25 7 29.9421 7 29.5782ZM15 34.5833C13.3457 34.5833 12 33.1255 12 31.3333C12 29.5412 13.3457 28.0833 15 28.0833C16.6543 28.0833 18 29.5412 18 31.3333C18 33.1255 16.6543 34.5833 15 34.5833ZM32 31.3333C32 29.5412 33.3457 28.0833 35 28.0833C36.6543 28.0833 38 29.5412 38 31.3333C38 33.1255 36.6543 34.5833 35 34.5833C33.3457 34.5833 32 33.1255 32 31.3333Z"/>
</mask>
<path d="M39.8989 32.4167H43.8203C45.5732 32.4167 47 30.871 47 28.9715V21.8436C47 20.6222 46.4238 19.5145 45.4551 18.8771L36.9502 13.3541L36.1963 4.33728C36.041 2.46578 34.5586 1 32.8203 1H8.38965C6.52051 1 5 2.64775 5 4.67265V8.58333H3.62012C2.17578 8.58333 1 9.85657 1 11.4218V19.8282C1 21.3934 2.17578 22.6667 3.62012 22.6667H5V29.5782C5 31.1434 6.17578 32.4167 7.62012 32.4167H10.1011C10.5657 34.8859 12.5856 36.75 15 36.75C17.4144 36.75 19.4343 34.8859 19.8989 32.4167H30.1011C30.5657 34.8859 32.5856 36.75 35 36.75C37.4144 36.75 39.4343 34.8859 39.8989 32.4167ZM34.2041 4.53194L34.9052 12.9167H26V3.16667H32.8203C33.5332 3.16667 34.1406 3.76599 34.2041 4.53194ZM16 12.9167V3.16667H24V12.9167H16ZM7 4.67265C7 3.84216 7.62305 3.16667 8.38965 3.16667H14V12.9167H7V9.66667V4.67265ZM3.62012 20.5C3.28418 20.5 3 20.1921 3 19.8282V11.4218C3 11.0579 3.28418 10.75 3.62012 10.75H5V20.5H3.62012ZM7 29.5782V21.5833V19.4167H22C22.5527 19.4167 23 18.9316 23 18.3333C23 17.7351 22.5527 17.25 22 17.25H7V15.0833H35.7224L44.4219 20.7327C44.7842 20.9708 45 21.386 45 21.8436V28.9715C45 29.6766 44.4707 30.25 43.8203 30.25H39.8994L39.8986 30.2472C39.8949 30.2274 39.8869 30.2095 39.883 30.1899C39.8208 29.8783 39.7335 29.5777 39.6241 29.2885C39.5847 29.1842 39.5318 29.0892 39.4866 28.9883C39.3984 28.791 39.3073 28.5967 39.1984 28.4135C39.1343 28.3058 39.0615 28.207 38.9907 28.1046C38.8792 27.9432 38.764 27.7872 38.637 27.6404C38.5533 27.5437 38.4659 27.4536 38.3759 27.3638C38.2415 27.2294 38.1015 27.1045 37.9541 26.9866C37.8558 26.908 37.7578 26.8319 37.6542 26.761C37.4954 26.6523 37.3294 26.5587 37.1592 26.4696C37.0532 26.4141 36.9503 26.3555 36.8404 26.308C36.6482 26.2251 36.4478 26.1642 36.2447 26.1072C36.1458 26.0795 36.0513 26.042 35.9501 26.0207C35.6418 25.9561 35.3255 25.9167 35 25.9167C34.6745 25.9167 34.3582 25.9561 34.0499 26.0207C33.9487 26.042 33.8542 26.0795 33.7553 26.1072C33.5522 26.1642 33.3518 26.2251 33.1596 26.308C33.0497 26.3555 32.9468 26.4141 32.8408 26.4696C32.6706 26.5587 32.5046 26.6523 32.3458 26.761C32.2422 26.8319 32.1442 26.908 32.0459 26.9866C31.8985 27.1045 31.7585 27.2294 31.6241 27.3638C31.5341 27.4536 31.4467 27.5437 31.363 27.6404C31.236 27.7872 31.1208 27.9432 31.0093 28.1046C30.9385 28.207 30.8657 28.3058 30.8016 28.4135C30.6927 28.5967 30.6016 28.791 30.5134 28.9883C30.4682 29.0892 30.4153 29.1842 30.3759 29.2885C30.2665 29.5777 30.1792 29.8783 30.117 30.1899C30.1131 30.2095 30.1051 30.2274 30.1014 30.2472L30.1006 30.25H19.8994L19.8986 30.2472C19.8949 30.2274 19.8869 30.2095 19.883 30.1899C19.8208 29.8783 19.7335 29.5777 19.6241 29.2885C19.5847 29.1842 19.5318 29.0892 19.4866 28.9883C19.3984 28.791 19.3073 28.5967 19.1984 28.4135C19.1343 28.3058 19.0615 28.207 18.9907 28.1046C18.8792 27.9432 18.764 27.7872 18.637 27.6404C18.5533 27.5437 18.4659 27.4536 18.3759 27.3638C18.2415 27.2294 18.1015 27.1045 17.9541 26.9866C17.8558 26.908 17.7578 26.8319 17.6542 26.761C17.4954 26.6523 17.3294 26.5587 17.1592 26.4696C17.0532 26.4141 16.9503 26.3555 16.8404 26.308C16.6482 26.2251 16.4478 26.1642 16.2447 26.1072C16.1458 26.0795 16.0513 26.042 15.9501 26.0207C15.6418 25.9561 15.3255 25.9167 15 25.9167C14.6745 25.9167 14.3582 25.9561 14.0499 26.0207C13.9487 26.042 13.8542 26.0795 13.7553 26.1072C13.5522 26.1642 13.3518 26.2251 13.1596 26.308C13.0497 26.3555 12.9468 26.4141 12.8408 26.4696C12.6706 26.5587 12.5046 26.6523 12.3458 26.761C12.2422 26.8319 12.1442 26.908 12.0459 26.9866C11.8985 27.1045 11.7585 27.2294 11.6241 27.3638C11.5341 27.4536 11.4467 27.5437 11.363 27.6404C11.236 27.7872 11.1208 27.9432 11.0093 28.1046C10.9385 28.207 10.8657 28.3058 10.8016 28.4135C10.6927 28.5967 10.6016 28.791 10.5134 28.9883C10.4682 29.0892 10.4153 29.1842 10.3759 29.2885C10.2665 29.5777 10.1792 29.8783 10.117 30.1899C10.1131 30.2095 10.1051 30.2274 10.1014 30.2472L10.1006 30.25H7.62012C7.28418 30.25 7 29.9421 7 29.5782ZM15 34.5833C13.3457 34.5833 12 33.1255 12 31.3333C12 29.5412 13.3457 28.0833 15 28.0833C16.6543 28.0833 18 29.5412 18 31.3333C18 33.1255 16.6543 34.5833 15 34.5833ZM32 31.3333C32 29.5412 33.3457 28.0833 35 28.0833C36.6543 28.0833 38 29.5412 38 31.3333C38 33.1255 36.6543 34.5833 35 34.5833C33.3457 34.5833 32 33.1255 32 31.3333Z" fill="#1FA67A"/>
<path d="M39.8989 32.4167H43.8203C45.5732 32.4167 47 30.871 47 28.9715V21.8436C47 20.6222 46.4238 19.5145 45.4551 18.8771L36.9502 13.3541L36.1963 4.33728C36.041 2.46578 34.5586 1 32.8203 1H8.38965C6.52051 1 5 2.64775 5 4.67265V8.58333H3.62012C2.17578 8.58333 1 9.85657 1 11.4218V19.8282C1 21.3934 2.17578 22.6667 3.62012 22.6667H5V29.5782C5 31.1434 6.17578 32.4167 7.62012 32.4167H10.1011C10.5657 34.8859 12.5856 36.75 15 36.75C17.4144 36.75 19.4343 34.8859 19.8989 32.4167H30.1011C30.5657 34.8859 32.5856 36.75 35 36.75C37.4144 36.75 39.4343 34.8859 39.8989 32.4167ZM34.2041 4.53194L34.9052 12.9167H26V3.16667H32.8203C33.5332 3.16667 34.1406 3.76599 34.2041 4.53194ZM16 12.9167V3.16667H24V12.9167H16ZM7 4.67265C7 3.84216 7.62305 3.16667 8.38965 3.16667H14V12.9167H7V9.66667V4.67265ZM3.62012 20.5C3.28418 20.5 3 20.1921 3 19.8282V11.4218C3 11.0579 3.28418 10.75 3.62012 10.75H5V20.5H3.62012ZM7 29.5782V21.5833V19.4167H22C22.5527 19.4167 23 18.9316 23 18.3333C23 17.7351 22.5527 17.25 22 17.25H7V15.0833H35.7224L44.4219 20.7327C44.7842 20.9708 45 21.386 45 21.8436V28.9715C45 29.6766 44.4707 30.25 43.8203 30.25H39.8994L39.8986 30.2472C39.8949 30.2274 39.8869 30.2095 39.883 30.1899C39.8208 29.8783 39.7335 29.5777 39.6241 29.2885C39.5847 29.1842 39.5318 29.0892 39.4866 28.9883C39.3984 28.791 39.3073 28.5967 39.1984 28.4135C39.1343 28.3058 39.0615 28.207 38.9907 28.1046C38.8792 27.9432 38.764 27.7872 38.637 27.6404C38.5533 27.5437 38.4659 27.4536 38.3759 27.3638C38.2415 27.2294 38.1015 27.1045 37.9541 26.9866C37.8558 26.908 37.7578 26.8319 37.6542 26.761C37.4954 26.6523 37.3294 26.5587 37.1592 26.4696C37.0532 26.4141 36.9503 26.3555 36.8404 26.308C36.6482 26.2251 36.4478 26.1642 36.2447 26.1072C36.1458 26.0795 36.0513 26.042 35.9501 26.0207C35.6418 25.9561 35.3255 25.9167 35 25.9167C34.6745 25.9167 34.3582 25.9561 34.0499 26.0207C33.9487 26.042 33.8542 26.0795 33.7553 26.1072C33.5522 26.1642 33.3518 26.2251 33.1596 26.308C33.0497 26.3555 32.9468 26.4141 32.8408 26.4696C32.6706 26.5587 32.5046 26.6523 32.3458 26.761C32.2422 26.8319 32.1442 26.908 32.0459 26.9866C31.8985 27.1045 31.7585 27.2294 31.6241 27.3638C31.5341 27.4536 31.4467 27.5437 31.363 27.6404C31.236 27.7872 31.1208 27.9432 31.0093 28.1046C30.9385 28.207 30.8657 28.3058 30.8016 28.4135C30.6927 28.5967 30.6016 28.791 30.5134 28.9883C30.4682 29.0892 30.4153 29.1842 30.3759 29.2885C30.2665 29.5777 30.1792 29.8783 30.117 30.1899C30.1131 30.2095 30.1051 30.2274 30.1014 30.2472L30.1006 30.25H19.8994L19.8986 30.2472C19.8949 30.2274 19.8869 30.2095 19.883 30.1899C19.8208 29.8783 19.7335 29.5777 19.6241 29.2885C19.5847 29.1842 19.5318 29.0892 19.4866 28.9883C19.3984 28.791 19.3073 28.5967 19.1984 28.4135C19.1343 28.3058 19.0615 28.207 18.9907 28.1046C18.8792 27.9432 18.764 27.7872 18.637 27.6404C18.5533 27.5437 18.4659 27.4536 18.3759 27.3638C18.2415 27.2294 18.1015 27.1045 17.9541 26.9866C17.8558 26.908 17.7578 26.8319 17.6542 26.761C17.4954 26.6523 17.3294 26.5587 17.1592 26.4696C17.0532 26.4141 16.9503 26.3555 16.8404 26.308C16.6482 26.2251 16.4478 26.1642 16.2447 26.1072C16.1458 26.0795 16.0513 26.042 15.9501 26.0207C15.6418 25.9561 15.3255 25.9167 15 25.9167C14.6745 25.9167 14.3582 25.9561 14.0499 26.0207C13.9487 26.042 13.8542 26.0795 13.7553 26.1072C13.5522 26.1642 13.3518 26.2251 13.1596 26.308C13.0497 26.3555 12.9468 26.4141 12.8408 26.4696C12.6706 26.5587 12.5046 26.6523 12.3458 26.761C12.2422 26.8319 12.1442 26.908 12.0459 26.9866C11.8985 27.1045 11.7585 27.2294 11.6241 27.3638C11.5341 27.4536 11.4467 27.5437 11.363 27.6404C11.236 27.7872 11.1208 27.9432 11.0093 28.1046C10.9385 28.207 10.8657 28.3058 10.8016 28.4135C10.6927 28.5967 10.6016 28.791 10.5134 28.9883C10.4682 29.0892 10.4153 29.1842 10.3759 29.2885C10.2665 29.5777 10.1792 29.8783 10.117 30.1899C10.1131 30.2095 10.1051 30.2274 10.1014 30.2472L10.1006 30.25H7.62012C7.28418 30.25 7 29.9421 7 29.5782ZM15 34.5833C13.3457 34.5833 12 33.1255 12 31.3333C12 29.5412 13.3457 28.0833 15 28.0833C16.6543 28.0833 18 29.5412 18 31.3333C18 33.1255 16.6543 34.5833 15 34.5833ZM32 31.3333C32 29.5412 33.3457 28.0833 35 28.0833C36.6543 28.0833 38 29.5412 38 31.3333C38 33.1255 36.6543 34.5833 35 34.5833C33.3457 34.5833 32 33.1255 32 31.3333Z" stroke="#E0C567" stroke-width="0.4" mask="url(#path-1-outside-1_736_91)"/>
<path d="M55.9696 54.7429C53.5384 53.6555 50.315 53.0393 47.1 52.9243V47.5535C49.3899 47.0068 51.1 44.795 51.1 42.1667C51.1 39.1326 48.8195 36.65 46 36.65C43.1805 36.65 40.9 39.1326 40.9 42.1667C40.9 44.795 42.6101 47.0068 44.9 47.5535V52.9243C41.685 53.0393 38.4616 53.6555 36.0304 54.7429C33.581 55.8384 31.9 57.4303 31.9 59.5C31.9 61.6762 33.7578 63.3253 36.4166 64.4255C39.0834 65.5291 42.5972 66.1 46 66.1C49.4028 66.1 52.9166 65.5291 55.5834 64.4255C58.2422 63.3253 60.1 61.6762 60.1 59.5C60.1 57.4303 58.419 55.8384 55.9696 54.7429ZM43.1 42.1667C43.1 40.4221 44.4083 39.0167 46 39.0167C47.5917 39.0167 48.9 40.4221 48.9 42.1667C48.9 43.9113 47.5917 45.3167 46 45.3167C44.4083 45.3167 43.1 43.9113 43.1 42.1667ZM46 63.7333C42.2932 63.7333 39.3066 63.1041 37.2503 62.2529C36.2217 61.8271 35.4296 61.3474 34.8965 60.8663C34.3608 60.3828 34.1 59.9107 34.1 59.5C34.1 59.1084 34.3374 58.6611 34.8258 58.2009C35.312 57.7426 36.0352 57.2833 36.9761 56.8685C38.8383 56.0477 41.539 55.4079 44.9 55.2912V58.4167C44.9 59.0624 45.3846 59.6 46 59.6C46.6154 59.6 47.1 59.0624 47.1 58.4167V55.2912C50.461 55.4079 53.1617 56.0477 55.0239 56.8685C55.9648 57.2833 56.688 57.7426 57.1742 58.2009C57.6626 58.6611 57.9 59.1084 57.9 59.5C57.9 59.9107 57.6392 60.3828 57.1035 60.8663C56.5704 61.3474 55.7783 61.8271 54.7497 62.2529C52.6934 63.1041 49.7068 63.7333 46 63.7333Z" fill="#1FA67A" stroke="#E0C567" stroke-width="0.2"/>
<path d="M60 24.7335H58C57.3846 24.7335 56.9 25.2711 56.9 25.9168C56.9 26.5626 57.3846 27.1002 58 27.1002H58.9V28.0835C58.9 28.7293 59.3846 29.2668 60 29.2668C60.6154 29.2668 61.1 28.7293 61.1 28.0835V25.9168C61.1 25.2711 60.6154 24.7335 60 24.7335Z" fill="#1FA67A" stroke="#E0C567" stroke-width="0.2"/>
<path d="M50 27.1002H54C54.6154 27.1002 55.1 26.5626 55.1 25.9168C55.1 25.2711 54.6154 24.7335 54 24.7335H50C49.3846 24.7335 48.9 25.2711 48.9 25.9168C48.9 26.5626 49.3846 27.1002 50 27.1002Z" fill="#1FA67A" stroke="#E0C567" stroke-width="0.2"/>
<path d="M60 39.9C59.3846 39.9 58.9 40.4376 58.9 41.0833V45.4167C58.9 46.0624 59.3846 46.6 60 46.6C60.6154 46.6 61.1 46.0624 61.1 45.4167V41.0833C61.1 40.4376 60.6154 39.9 60 39.9Z" fill="#1FA67A" stroke="#E0C567" stroke-width="0.2"/>
<path d="M60 31.2335C59.3846 31.2335 58.9 31.7711 58.9 32.4168V36.7502C58.9 37.3959 59.3846 37.9335 60 37.9335C60.6154 37.9335 61.1 37.3959 61.1 36.7502V32.4168C61.1 31.7711 60.6154 31.2335 60 31.2335Z" fill="#1FA67A" stroke="#E0C567" stroke-width="0.2"/>
<path d="M60 48.5665C59.3846 48.5665 58.9 49.1041 58.9 49.7498V50.8332C58.9 51.4789 59.3846 52.0165 60 52.0165C60.6154 52.0165 61.1 51.4789 61.1 50.8332V49.7498C61.1 49.1041 60.6154 48.5665 60 48.5665Z" fill="#1FA67A" stroke="#E0C567" stroke-width="0.2"/>
<path d="M8 48.5665C7.38462 48.5665 6.9 49.1041 6.9 49.7498V54.0832C6.9 54.7289 7.38462 55.2665 8 55.2665C8.61538 55.2665 9.1 54.7289 9.1 54.0832V49.7498C9.1 49.1041 8.61538 48.5665 8 48.5665Z" fill="#1FA67A" stroke="#E0C567" stroke-width="0.2"/>
<path d="M8 39.9C7.38462 39.9 6.9 40.4376 6.9 41.0833V45.4167C6.9 46.0624 7.38462 46.6 8 46.6C8.61538 46.6 9.1 46.0624 9.1 45.4167V41.0833C9.1 40.4376 8.61538 39.9 8 39.9Z" fill="#1FA67A" stroke="#E0C567" stroke-width="0.2"/>
<path d="M16 52.9H12C11.3846 52.9 10.9 53.4376 10.9 54.0833C10.9 54.7291 11.3846 55.2667 12 55.2667H16C16.6154 55.2667 17.1 54.7291 17.1 54.0833C17.1 53.4376 16.6154 52.9 16 52.9Z" fill="#1FA67A" stroke="#E0C567" stroke-width="0.2"/>
<path d="M30 52.9H28C27.3846 52.9 26.9 53.4376 26.9 54.0833C26.9 54.7291 27.3846 55.2667 28 55.2667H30C30.6154 55.2667 31.1 54.7291 31.1 54.0833C31.1 53.4376 30.6154 52.9 30 52.9Z" fill="#1FA67A" stroke="#E0C567" stroke-width="0.2"/>
<path d="M24 52.9H20C19.3846 52.9 18.9 53.4376 18.9 54.0833C18.9 54.7291 19.3846 55.2667 20 55.2667H24C24.6154 55.2667 25.1 54.7291 25.1 54.0833C25.1 53.4376 24.6154 52.9 24 52.9Z" fill="#1FA67A" stroke="#E0C567" stroke-width="0.2"/>
</svg>
