<svg width="22" height="22" viewBox="0 0 22 22" fill="none" xmlns="http://www.w3.org/2000/svg">
<path d="M17.8295 13.2542C18.1276 12.9312 18.2766 12.7698 18.435 12.6756C18.8171 12.4483 19.2876 12.4412 19.6761 12.6569C19.8372 12.7463 19.9908 12.9032 20.298 13.2171C20.6053 13.531 20.7589 13.6879 20.8464 13.8524C21.0575 14.2492 21.0506 14.7299 20.8281 15.1203C20.7359 15.2821 20.5779 15.4343 20.2617 15.7388L16.5003 19.3617C15.9012 19.9387 15.6016 20.2273 15.2272 20.3735C14.8528 20.5197 14.4413 20.509 13.6181 20.4874L13.5062 20.4845C13.2556 20.478 13.1303 20.4747 13.0574 20.392C12.9846 20.3094 12.9945 20.1817 13.0144 19.9265L13.0252 19.7879C13.0812 19.0694 13.1092 18.7102 13.2495 18.3873C13.3898 18.0644 13.6318 17.8022 14.1158 17.2778L17.8295 13.2542Z" stroke="#1FA67A" stroke-width="1.5" stroke-linejoin="round"/>
<path d="M21 9.5V8.71749C21 6.77787 21 5.80807 20.4142 5.2055C19.8284 4.60294 18.8856 4.60294 17 4.60294H14.9214C14.004 4.60294 13.9964 4.60116 13.1715 4.18834L9.8399 2.52114C8.44884 1.82504 7.75332 1.47699 7.01238 1.50118C6.27143 1.52537 5.59877 1.91808 4.25345 2.70351L3.02558 3.42037C2.03739 3.99729 1.54329 4.28576 1.27164 4.76564C1 5.24553 1 5.82993 1 6.99873V15.2157C1 16.7514 1 17.5193 1.34226 17.9467C1.57001 18.231 1.88916 18.4222 2.242 18.4856C2.77226 18.5808 3.42148 18.2018 4.71987 17.4437C5.60156 16.929 6.45011 16.3944 7.50487 16.5394C8.38869 16.6608 9.21 17.2185 10 17.6138" stroke="#1FA67A" stroke-width="1.5" stroke-linecap="round" stroke-linejoin="round"/>
<path d="M7 1.5V16.5" stroke="#1FA67A" stroke-width="1.5" stroke-linejoin="round"/>
<path d="M14 4.5V12.5" stroke="#1FA67A" stroke-width="1.5" stroke-linecap="round" stroke-linejoin="round"/>
</svg>
